<svg xmlns="http://www.w3.org/2000/svg" xmlns:xlink="http://www.w3.org/1999/xlink" width="70.148" height="73.475" viewBox="0 0 70.148 73.475">
  <defs>
    <linearGradient id="linear-gradient" x1="-0.041" y1="0.5" x2="1.841" y2="0.5" gradientUnits="objectBoundingBox">
      <stop offset="0.459" stop-color="#eaeaf9"/>
      <stop offset="0.497" stop-color="#e7e7f8"/>
      <stop offset="0.514" stop-color="#e0e0f6"/>
      <stop offset="0.526" stop-color="#d4d4f3"/>
      <stop offset="0.536" stop-color="#c2c2ee"/>
      <stop offset="0.538" stop-color="#bebeed"/>
    </linearGradient>
    <linearGradient id="linear-gradient-2" y1="0.5" x2="1" y2="0.5" gradientUnits="objectBoundingBox">
      <stop offset="0" stop-color="#ff6f1b"/>
      <stop offset="1" stop-color="#ff3933"/>
    </linearGradient>
    <linearGradient id="linear-gradient-3" y1="0.5" x2="1" y2="0.5" gradientUnits="objectBoundingBox">
      <stop offset="0" stop-color="#ffd33f"/>
      <stop offset="1" stop-color="#ff7364"/>
    </linearGradient>
    <clipPath id="clip-path">
      <rect id="Rectángulo_344599" data-name="Rectángulo 344599" width="53.723" height="70.84" fill="none"/>
    </clipPath>
  </defs>
  <g id="Grupo_1034051" data-name="Grupo 1034051" transform="translate(-1111.574 -163.869)">
    <g id="Grupo_1026053" data-name="Grupo 1026053" transform="translate(1111.574 174.745)">
      <g id="Grupo_35336" data-name="Grupo 35336" transform="translate(0)">
        <path id="Trazado_86994" data-name="Trazado 86994" d="M416.251,59.81,400.6,50.989c-.028-.017-.055-.036-.084-.052L370.8,34.186a1.534,1.534,0,0,0-1.652-.046s-1.672.951-1.662.957a.337.337,0,0,1,.084-.043,1.548,1.548,0,0,1,1.461.163l14.846,8.369,14.869,8.382c.029.016.056.034.085.052l3.782,2.131,11.866,6.69a4.547,4.547,0,0,1,2.123,3.575v2.595l1.769-.992V63.385A4.546,4.546,0,0,0,416.251,59.81Z" transform="translate(-366.912 -33.922)" fill="url(#linear-gradient)"/>
        <g id="Grupo_35335" data-name="Grupo 35335" transform="translate(0 5.04)">
          <path id="Trazado_86995" data-name="Trazado 86995" d="M418.867,69.359c.035.021.035,28.026.035,28.026a1.564,1.564,0,0,1-.427,1.184c.82-.459,1.645-.922,1.639-.928a1.465,1.465,0,0,0,.557-1.288V68.347Z" transform="translate(-369.209 -41.289)" fill="#dee4f0"/>
          <path id="Trazado_86996" data-name="Trazado 86996" d="M416.579,67.417,382.618,48.2c0,.029-15.733-8.874-15.733-8.874V67.405a4.546,4.546,0,0,0,2.123,3.575l15.648,8.82c.028.018.056.036.085.053L414.456,96.6a1.58,1.58,0,0,0,1.423.186c.016-.007.034-.014.05-.022l.054-.031a1.1,1.1,0,0,0,.169-.13,1.564,1.564,0,0,0,.427-1.184Z" transform="translate(-366.885 -39.327)" fill="#dee4f0"/>
        </g>
        <path id="Trazado_86997" data-name="Trazado 86997" d="M414.456,60.916l-11.866-6.69-3.781-2.131c-.029-.018-.056-.036-.085-.052L383.854,43.66l-14.847-8.369a1.548,1.548,0,0,0-1.461-.163c-.028.014-.057.026-.084.043a1.451,1.451,0,0,0-.578,1.3v2.563l15.733,8.9c0-.029,33.961,19.188,33.961,19.188V64.49A4.546,4.546,0,0,0,414.456,60.916Z" transform="translate(-366.885 -33.996)" fill="#f0f0fc"/>
      </g>
      <g id="Grupo_35340" data-name="Grupo 35340" transform="translate(40.516 25.119)">
        <g id="Grupo_35337" data-name="Grupo 35337" transform="translate(5.547 3.155)">
          <path id="Trazado_86998" data-name="Trazado 86998" d="M416.9,66.574a.8.8,0,0,0,.092-.4,1.99,1.99,0,0,0-.93-1.565.9.9,0,0,0-.374-.123.515.515,0,0,0-.24.038l.4-.212a.656.656,0,0,1,.676.053,1.991,1.991,0,0,1,.929,1.565.642.642,0,0,1-.242.563c-.035.022-.492.262-.492.262A.472.472,0,0,0,416.9,66.574Z" transform="translate(-415.137 -64.246)" fill="#f90000"/>
          <path id="Trazado_86999" data-name="Trazado 86999" d="M415.437,64.546a.516.516,0,0,1,.24-.038.9.9,0,0,1,.374.123,1.99,1.99,0,0,1,.93,1.565.8.8,0,0,1-.092.4.472.472,0,0,1-.179.186.668.668,0,0,1-.659-.064,1.992,1.992,0,0,1-.929-1.565A.6.6,0,0,1,415.437,64.546Z" transform="translate(-415.122 -64.263)" fill="url(#linear-gradient-2)"/>
        </g>
        <g id="Grupo_35338" data-name="Grupo 35338" transform="translate(2.763 1.578)">
          <path id="Trazado_87000" data-name="Trazado 87000" d="M413.988,64.883a.808.808,0,0,0,.091-.4,1.99,1.99,0,0,0-.929-1.565.9.9,0,0,0-.374-.123.519.519,0,0,0-.241.038l.4-.212a.654.654,0,0,1,.676.053,1.99,1.99,0,0,1,.929,1.565.644.644,0,0,1-.243.563c-.035.022-.491.262-.491.262A.473.473,0,0,0,413.988,64.883Z" transform="translate(-412.221 -62.555)" fill="#ffd33f"/>
          <path id="Trazado_87001" data-name="Trazado 87001" d="M412.52,62.855a.519.519,0,0,1,.241-.038.9.9,0,0,1,.374.123,1.99,1.99,0,0,1,.929,1.565.81.81,0,0,1-.091.4.474.474,0,0,1-.18.186.67.67,0,0,1-.659-.064,1.992,1.992,0,0,1-.929-1.565A.6.6,0,0,1,412.52,62.855Z" transform="translate(-412.206 -62.572)" fill="url(#linear-gradient-3)"/>
        </g>
        <g id="Grupo_35339" data-name="Grupo 35339" transform="translate(0)">
          <path id="Trazado_87002" data-name="Trazado 87002" d="M411.094,63.191a.8.8,0,0,0,.092-.4,1.99,1.99,0,0,0-.929-1.565.9.9,0,0,0-.375-.123.517.517,0,0,0-.24.038l.4-.212a.653.653,0,0,1,.676.053,1.99,1.99,0,0,1,.929,1.565.643.643,0,0,1-.243.563c-.035.022-.491.262-.491.262A.465.465,0,0,0,411.094,63.191Z" transform="translate(-409.328 -60.863)" fill="#40b8e2"/>
          <path id="Trazado_87003" data-name="Trazado 87003" d="M409.627,61.163a.516.516,0,0,1,.24-.038.9.9,0,0,1,.375.123,1.99,1.99,0,0,1,.929,1.565.8.8,0,0,1-.092.4.464.464,0,0,1-.179.186.67.67,0,0,1-.659-.064,1.99,1.99,0,0,1-.929-1.565A.6.6,0,0,1,409.627,61.163Z" transform="translate(-409.313 -60.88)" fill="#71d4ff"/>
        </g>
      </g>
    </g>
    <g id="Grupo_1026054" data-name="Grupo 1026054" transform="translate(1128 163.869)">
      <g id="Grupo_985899" data-name="Grupo 985899" transform="translate(0 0)" clip-path="url(#clip-path)">
        <g id="Grupo_985898" data-name="Grupo 985898">
          <g id="Grupo_985897" data-name="Grupo 985897" clip-path="url(#clip-path)">
            <path id="Trazado_659166" data-name="Trazado 659166" d="M52.086,73.263a.547.547,0,0,1-.263-.081l-1-.576L1.438,44.206a2.119,2.119,0,0,1-.957-1.658V4c0-.04,0-.08.006-.116A.311.311,0,0,1,.5,3.822.12.12,0,0,0,.5,3.793a.1.1,0,0,0,0-.017.249.249,0,0,1,.016-.059.375.375,0,0,1,.048-.106.126.126,0,0,0,.014-.029l.026-.034A.083.083,0,0,0,.63,3.526a.2.2,0,0,1,.042-.042.266.266,0,0,0,.02-.018s.026-.014.05-.025A.423.423,0,0,1,.926,3.4a.808.808,0,0,1,.392.121L51.7,32.481a2.119,2.119,0,0,1,.957,1.657V72.667a.57.57,0,0,1-.3.509c-.031.017-.043.023-.055.031s-.023.014-.039.022a.246.246,0,0,1-.059.02.45.45,0,0,1-.1.014Z" transform="translate(-0.36 -2.544)" fill="#fafafa"/>
            <path id="Trazado_659167" data-name="Trazado 659167" d="M.567,3.162a.7.7,0,0,1,.331.1L51.282,32.226a2.016,2.016,0,0,1,.9,1.553V72.064c0,.007,0,.014,0,.02v.222a.451.451,0,0,1-.238.4l-.016.009a.479.479,0,0,0-.042.023l-.034.019a.155.155,0,0,1-.033.011.351.351,0,0,1-.075.01h-.015a.434.434,0,0,1-.2-.065L51.5,72.7l-.01-.005-.963-.556L1.139,43.74a2.015,2.015,0,0,1-.9-1.553V3.644c0-.037,0-.073.005-.1A.363.363,0,0,1,.254,3.5a.226.226,0,0,0,.011-.048.169.169,0,0,0,0-.025A.162.162,0,0,1,.277,3.4c0-.006,0-.013.007-.019a.223.223,0,0,1,.028-.062.274.274,0,0,0,.019-.034l.008-.01.007-.01a.229.229,0,0,0,.022-.025A.082.082,0,0,1,.386,3.22L.4,3.208a.321.321,0,0,1,.037-.02.3.3,0,0,1,.129-.027m0-.243a.538.538,0,0,0-.233.05.469.469,0,0,0-.087.05l-.006.007a.316.316,0,0,0-.067.067.151.151,0,0,0-.03.037.175.175,0,0,0-.034.053.469.469,0,0,0-.06.13.361.361,0,0,0-.023.09.021.021,0,0,0,0,.02.432.432,0,0,0-.017.093C0,3.557,0,3.6,0,3.644V42.187A2.249,2.249,0,0,0,1.018,43.95L50.4,72.35l.97.56h0l.027.015a.666.666,0,0,0,.323.1h.015a.574.574,0,0,0,.13-.017.38.38,0,0,0,.087-.03c.02-.01.037-.02.053-.03s.03-.015.045-.025a.694.694,0,0,0,.365-.616v-.222s0-.006,0-.009v-38.3A2.255,2.255,0,0,0,51.4,32.016L1.018,3.056a.926.926,0,0,0-.452-.137" transform="translate(0 -2.184)" fill="#e0e0e0"/>
            <path id="Trazado_659168" data-name="Trazado 659168" d="M1.325.786a.738.738,0,0,1,.684.087L52.394,29.833A2.254,2.254,0,0,1,53.413,31.6v1.973l1.3-.761v-1.95A2.245,2.245,0,0,0,53.7,29.1L3.308.139A.708.708,0,0,0,2.57.079c-.184.11-1.028.594-1.245.708" transform="translate(-0.991 -0.001)" fill="#d2e1f1"/>
            <path id="Trazado_659169" data-name="Trazado 659169" d="M.009,3.636c0-.642.457-.9,1.016-.579L51.411,32.016a2.248,2.248,0,0,1,1.017,1.761v1.975L.009,5.622Z" transform="translate(-0.007 -2.183)" fill="#12263f"/>
            <path id="Trazado_659172" data-name="Trazado 659172" d="M14.776,13.941a1.02,1.02,0,0,1,.386.818c0,.329-.173.5-.386.372a1.019,1.019,0,0,1-.386-.818c0-.329.173-.5.386-.372" transform="translate(-10.765 -10.399)" fill="#455a64"/>
            <path id="Trazado_659173" data-name="Trazado 659173" d="M9.252,10.746a1.02,1.02,0,0,1,.386.818c0,.329-.173.5-.386.372a1.019,1.019,0,0,1-.386-.818c0-.329.173-.5.386-.372" transform="translate(-6.633 -8.009)" fill="#455a64"/>
            <path id="Trazado_659174" data-name="Trazado 659174" d="M3.728,7.551a1.02,1.02,0,0,1,.386.818c0,.329-.173.5-.386.372a1.019,1.019,0,0,1-.386-.818c0-.329.173-.5.386-.372" transform="translate(-2.5 -5.619)" fill="#455a64"/>
            <path id="Trazado_659175" data-name="Trazado 659175" d="M206.662,168.172l.053-.029,1.072-.621a1.08,1.08,0,0,0,.529-.789.98.98,0,0,0,.012-.148V130.241l-1.3.762v36.553a.315.315,0,0,1,0,.049.008.008,0,0,1,0,0,.677.677,0,0,1-.354.558l0,0" transform="translate(-154.606 -97.435)" fill="#e0e0e0"/>
            <path id="Trazado_659176" data-name="Trazado 659176" d="M154.405,152.012l-8.74-5.046c-.58-.335-1.051-.063-1.051.606v10.092a2.322,2.322,0,0,0,1.05,1.82l8.74,5.046c.58.335,1.051.063,1.051-.607V153.832A2.322,2.322,0,0,0,154.405,152.012Z" transform="translate(-108.188 -109.84)" fill="none" stroke="#e0e0e0" stroke-miterlimit="10" stroke-width="0.963"/>
            <path id="Trazado_659177" data-name="Trazado 659177" d="M151.728,164.808l.686.72a.668.668,0,0,1,.155.374,4.921,4.921,0,0,0,.056.539.266.266,0,0,1-.166.285l-.441.154a.213.213,0,0,0-.13.276l.425,1.151a.341.341,0,0,0,.292.207l.532.009a.426.426,0,0,1,.324.192c.108.184.225.362.349.533a.622.622,0,0,1,.1.388l-.1.782a.463.463,0,0,0,.134.36l.782.7a.138.138,0,0,0,.238-.058l.227-.606a.188.188,0,0,1,.268-.1,2.651,2.651,0,0,0,.332.135.544.544,0,0,1,.3.256l.452,1.021a.3.3,0,0,0,.3.165l.559-.087a.185.185,0,0,0,.153-.242l-.306-1.032a.362.362,0,0,1,.109-.342,1.5,1.5,0,0,0,.154-.165.212.212,0,0,1,.3-.047l.7.529a.132.132,0,0,0,.224-.08l.19-.788a.443.443,0,0,0-.1-.368l-.686-.72a.67.67,0,0,1-.155-.374,4.924,4.924,0,0,0-.056-.54.266.266,0,0,1,.167-.285l.441-.154a.213.213,0,0,0,.13-.275l-.425-1.151a.342.342,0,0,0-.292-.207l-.532-.009a.427.427,0,0,1-.324-.192c-.108-.184-.225-.362-.349-.532a.622.622,0,0,1-.1-.388l.1-.782a.461.461,0,0,0-.134-.36l-.782-.7a.138.138,0,0,0-.238.058l-.227.606a.188.188,0,0,1-.268.1,2.646,2.646,0,0,0-.332-.134.545.545,0,0,1-.3-.256l-.452-1.021a.3.3,0,0,0-.3-.165l-.559.087a.185.185,0,0,0-.153.241l.306,1.032a.362.362,0,0,1-.109.342,1.5,1.5,0,0,0-.154.165.212.212,0,0,1-.3.047l-.7-.529a.132.132,0,0,0-.224.08l-.19.788a.444.444,0,0,0,.1.368m2.014,1.052c.224-.928,1.092-1.063,1.94-.3a3.53,3.53,0,0,1,1.129,3.061c-.224.928-1.092,1.063-1.94.3a3.53,3.53,0,0,1-1.129-3.061" transform="translate(-113.429 -121.331)" fill="#e0e0e0"/>
            <path id="Trazado_659178" data-name="Trazado 659178" d="M90.725,115.248l-8.74-5.046c-.58-.335-1.051-.063-1.051.607V120.9a2.322,2.322,0,0,0,1.05,1.82l8.74,5.046c.58.335,1.051.063,1.051-.607V117.068A2.322,2.322,0,0,0,90.725,115.248Z" transform="translate(-60.548 -82.336)" fill="none" stroke="#12263f" stroke-miterlimit="10" stroke-width="0.963"/>
            <path id="Trazado_659179" data-name="Trazado 659179" d="M86.043,118.655v3.581l2.494,1.441a.992.992,0,0,1,.98-.75,1.576,1.576,0,0,1,.781.233,3.52,3.52,0,0,1,1.575,2.443l2.436,1.4v-3.581a1.392,1.392,0,0,0-.631-1.092l-7.005-4.045c-.348-.2-.63-.038-.63.364" transform="translate(-64.37 -88.43)" fill="#5573c6"/>
            <path id="Trazado_659180" data-name="Trazado 659180" d="M86.043,141.412a1.393,1.393,0,0,0,.63,1.092l7.005,4.045c.348.2.631.038.631-.364V142.6l-2.492-1.439a.994.994,0,0,1-.98.747,1.569,1.569,0,0,1-.781-.233,3.524,3.524,0,0,1-1.575-2.441l-2.438-1.407Z" transform="translate(-64.37 -103.113)" fill="#5573c6"/>
            <path id="Trazado_659181" data-name="Trazado 659181" d="M99.18,139.991c-.609-.352-1.1-.066-1.1.637a2.437,2.437,0,0,0,1.1,1.91c.609.352,1.1.066,1.1-.637a2.437,2.437,0,0,0-1.1-1.91" transform="translate(-73.372 -104.616)" fill="#f4a338"/>
            <path id="Trazado_659182" data-name="Trazado 659182" d="M26.8,78.339l-8.74-5.046c-.58-.335-1.051-.063-1.051.606V83.992a2.322,2.322,0,0,0,1.05,1.82l8.74,5.046c.58.335,1.051.063,1.051-.607V80.159A2.322,2.322,0,0,0,26.8,78.339Z" transform="translate(-12.724 -54.724)" fill="none" stroke="#e0e0e0" stroke-miterlimit="10" stroke-width="0.963"/>
            <path id="Trazado_659183" data-name="Trazado 659183" d="M25.536,88.619c.08,2.354.61,7.03,3.547,9.859,2.064-1.1,3.062-4.357,2.994-6.362a.372.372,0,0,0-.107-.25.5.5,0,0,0-.179-.124,7.354,7.354,0,0,1-2.95-3.406c-.048-.108-.117-.141-.189-.1l-.011.007a.259.259,0,0,0-.065.057h0l-.011.014a2.12,2.12,0,0,1-2.82.2c-.067-.048-.122-.061-.159-.044l0,0h0c-.034.02-.051.069-.046.147" transform="translate(-19.103 -65.997)" fill="#e0e0e0"/>
            <path id="Trazado_659184" data-name="Trazado 659184" d="M84.731,177.19l-15.487-8.941c-.459-.265-.831-.077-.831.42a1.782,1.782,0,0,0,.831,1.38l15.487,8.941c.459.265.831.077.831-.42a1.781,1.781,0,0,0-.831-1.38" transform="translate(-51.18 -125.778)" fill="#e0e0e0"/>
            <path id="Trazado_659185" data-name="Trazado 659185" d="M119.06,197.113a1.526,1.526,0,0,1,.7,1.159c0,.188-.062.284-.185.284a.53.53,0,0,1-.262-.086l-4.844-2.8v-1.21Z" transform="translate(-85.638 -145.48)" fill="#27debf"/>
            <path id="Trazado_659186" data-name="Trazado 659186" d="M70.133,170.587a1.525,1.525,0,0,1-.7-1.158c0-.189.061-.285.184-.285a.54.54,0,0,1,.262.086L73.3,171.2l7.479,4.318v1.21L73.3,172.414Z" transform="translate(-51.942 -126.538)" fill="#f5f5f5"/>
          </g>
        </g>
      </g>
    </g>
  </g>
</svg>
