<svg xmlns="http://www.w3.org/2000/svg" xmlns:xlink="http://www.w3.org/1999/xlink" width="302.403" height="263.797" viewBox="0 0 302.403 263.797">
  <defs>
    <linearGradient id="linear-gradient" x1="0.5" x2="0.5" y2="1" gradientUnits="objectBoundingBox">
      <stop offset="0" stop-color="#fff"/>
      <stop offset="1" stop-color="#d2e6ee"/>
    </linearGradient>
    <linearGradient id="linear-gradient-2" y1="0.5" x2="1" y2="0.5" gradientUnits="objectBoundingBox">
      <stop offset="0" stop-color="#eaeaf9"/>
      <stop offset="1" stop-color="#bebeed"/>
    </linearGradient>
    <linearGradient id="linear-gradient-4" x1="0.112" y1="0.5" x2="1.112" y2="0.5" xlink:href="#linear-gradient"/>
    <linearGradient id="linear-gradient-5" x1="1.027" y1="0.5" x2="-0.007" y2="0.5" xlink:href="#linear-gradient"/>
    <linearGradient id="linear-gradient-6" x1="0.5" x2="0.5" y2="1" gradientUnits="objectBoundingBox">
      <stop offset="0" stop-color="#fff"/>
      <stop offset="0.463" stop-color="#e9fffe"/>
      <stop offset="1" stop-color="#fff"/>
    </linearGradient>
    <linearGradient id="linear-gradient-11" y1="-0.013" y2="1.112" xlink:href="#linear-gradient"/>
    <clipPath id="clip-path">
      <rect id="Rect치ngulo_59008" data-name="Rect치ngulo 59008" width="11.27" height="24.29" fill="none"/>
    </clipPath>
    <clipPath id="clip-path-2">
      <rect id="Rect치ngulo_59009" data-name="Rect치ngulo 59009" width="17.887" height="27.196" fill="none"/>
    </clipPath>
  </defs>
  <g id="Grupo_1034050" data-name="Grupo 1034050" transform="translate(-659.424 -74.102)">
    <g id="Grupo_1026051" data-name="Grupo 1026051" transform="translate(-374 -130.196)">
      <g id="Grupo_1026043" data-name="Grupo 1026043" transform="translate(1040.481 237.762)">
        <g id="Grupo_35313" data-name="Grupo 35313" transform="translate(0 101.601)">
          <g id="Grupo_35267" data-name="Grupo 35267">
            <path id="Trazado_86809" data-name="Trazado 86809" d="M429.421,342.205a12.778,12.778,0,0,1-12.54-.065l-128.4-73.5-.037.128v6.773a4.737,4.737,0,0,0,2.452,4.129l124.063,69.3a16.811,16.811,0,0,0,16.346,0l70.63-39.416a7.865,7.865,0,0,0,4.073-6.761l.058-4.869Z" transform="translate(-288.444 -222.365)" fill="#afafaf"/>
            <g id="Grupo_35266" data-name="Grupo 35266" transform="translate(0.011)">
              <path id="Trazado_86810" data-name="Trazado 86810" d="M429.183,336.32l75.661-42.265a2.258,2.258,0,0,0,0-3.969L374.137,217.071a5.736,5.736,0,0,0-5.579,0l-78.921,44.087a2.258,2.258,0,0,0,0,3.969L417.083,336.32A12.441,12.441,0,0,0,429.183,336.32Z" transform="translate(-288.456 -216.347)" fill="#e8e8e8"/>
            </g>
          </g>
          <g id="Grupo_35271" data-name="Grupo 35271" transform="translate(184.122 63.762)">
            <g id="Grupo_35268" data-name="Grupo 35268" transform="translate(0)">
              <path id="Trazado_86811" data-name="Trazado 86811" d="M492.464,291.266a4.775,4.775,0,0,0,4.218-.007c1.168-.657,1.175-1.719.013-2.371a4.773,4.773,0,0,0-4.218.007C491.309,289.552,491.3,290.613,492.464,291.266Z" transform="translate(-491.597 -288.401)" fill="#8a7cbf"/>
            </g>
            <g id="Grupo_35269" data-name="Grupo 35269" transform="translate(5.88 3.305)">
              <path id="Trazado_86812" data-name="Trazado 86812" d="M498.952,295a4.774,4.774,0,0,0,4.218-.007c1.168-.657,1.175-1.718.014-2.371a4.779,4.779,0,0,0-4.219.007C497.8,293.286,497.791,294.348,498.952,295Z" transform="translate(-498.085 -292.135)" fill="#8a7cbf"/>
            </g>
            <g id="Grupo_35270" data-name="Grupo 35270" transform="translate(11.76 6.609)">
              <path id="Trazado_86813" data-name="Trazado 86813" d="M505.44,298.734a4.773,4.773,0,0,0,4.218-.007c1.168-.657,1.175-1.719.013-2.371a4.777,4.777,0,0,0-4.218.007C504.285,297.021,504.279,298.082,505.44,298.734Z" transform="translate(-504.573 -295.869)" fill="#8a7cbf"/>
            </g>
          </g>
          <g id="Grupo_35272" data-name="Grupo 35272" transform="translate(56.102 59.548)">
            <path id="Trazado_86814" data-name="Trazado 86814" d="M352.206,296.23l24.613,13.832c2.756,1.549,7.57,1.354,10.752-.435l9.022-5.07c3.182-1.788,3.528-4.494.772-6.042l-24.614-13.832c-2.755-1.549-7.569-1.355-10.752.434l-9.022,5.071C349.795,291.976,349.45,294.682,352.206,296.23Z" transform="translate(-350.345 -283.638)" fill="#00223d"/>
          </g>
          <g id="Grupo_35312" data-name="Grupo 35312" transform="translate(48.65 9.944)">
            <g id="Grupo_35285" data-name="Grupo 35285" transform="translate(21.881)">
              <g id="Grupo_35273" data-name="Grupo 35273" transform="translate(0)">
                <path id="Trazado_86815" data-name="Trazado 86815" d="M374.746,237.089l-8.481-4.767,8.437-4.738,8.481,4.771Z" transform="translate(-366.265 -227.584)" fill="#00223d"/>
              </g>
              <g id="Grupo_35274" data-name="Grupo 35274" transform="translate(10.091 5.674)">
                <path id="Trazado_86816" data-name="Trazado 86816" d="M385.885,243.488l-8.485-4.763L385.828,234l8.494,4.771Z" transform="translate(-377.399 -233.996)" fill="#00223d"/>
              </g>
              <g id="Grupo_35275" data-name="Grupo 35275" transform="translate(20.187 11.339)">
                <path id="Trazado_86817" data-name="Trazado 86817" d="M397.019,249.907l-8.48-4.78,8.437-4.729,8.485,4.78Z" transform="translate(-388.539 -240.398)" fill="#00223d"/>
              </g>
              <g id="Grupo_35276" data-name="Grupo 35276" transform="translate(30.283 17.005)">
                <path id="Trazado_86818" data-name="Trazado 86818" d="M408.167,256.318l-8.489-4.759,8.428-4.758,8.489,4.775Z" transform="translate(-399.678 -246.801)" fill="#00223d"/>
              </g>
              <g id="Grupo_35277" data-name="Grupo 35277" transform="translate(40.37 22.688)">
                <path id="Trazado_86819" data-name="Trazado 86819" d="M419.293,262.727l-8.485-4.763,8.428-4.742,8.494,4.75Z" transform="translate(-410.808 -253.222)" fill="#00223d"/>
              </g>
              <g id="Grupo_35278" data-name="Grupo 35278" transform="translate(50.457 28.358)">
                <path id="Trazado_86820" data-name="Trazado 86820" d="M430.431,269.134l-8.494-4.772,8.428-4.733,8.5,4.767Z" transform="translate(-421.938 -259.629)" fill="#00223d"/>
              </g>
              <g id="Grupo_35279" data-name="Grupo 35279" transform="translate(60.553 34.019)">
                <path id="Trazado_86821" data-name="Trazado 86821" d="M441.557,275.54l-8.481-4.763,8.437-4.75,8.476,4.78Z" transform="translate(-433.077 -266.027)" fill="#00223d"/>
              </g>
              <g id="Grupo_35280" data-name="Grupo 35280" transform="translate(70.644 39.701)">
                <path id="Trazado_86822" data-name="Trazado 86822" d="M452.7,281.949l-8.485-4.763,8.428-4.737,8.5,4.771Z" transform="translate(-444.211 -272.448)" fill="#00223d"/>
              </g>
              <g id="Grupo_35281" data-name="Grupo 35281" transform="translate(80.74 45.363)">
                <path id="Trazado_86823" data-name="Trazado 86823" d="M463.831,288.363l-8.481-4.784,8.424-4.733,8.5,4.784Z" transform="translate(-455.35 -278.846)" fill="#00223d"/>
              </g>
              <g id="Grupo_35282" data-name="Grupo 35282" transform="translate(90.827 51.041)">
                <path id="Trazado_86824" data-name="Trazado 86824" d="M474.965,294.772l-8.485-4.763,8.433-4.746,8.481,4.771Z" transform="translate(-466.48 -285.263)" fill="#00223d"/>
              </g>
              <g id="Grupo_35283" data-name="Grupo 35283" transform="translate(100.914 56.702)">
                <path id="Trazado_86825" data-name="Trazado 86825" d="M486.1,301.186l-8.494-4.772,8.441-4.754,8.481,4.771Z" transform="translate(-477.61 -291.66)" fill="#00223d"/>
              </g>
              <g id="Grupo_35284" data-name="Grupo 35284" transform="translate(111.01 62.381)">
                <path id="Trazado_86826" data-name="Trazado 86826" d="M497.243,307.59l-8.494-4.776,8.428-4.738,8.494,4.759Z" transform="translate(-488.749 -298.077)" fill="#00223d"/>
              </g>
            </g>
            <g id="Grupo_35298" data-name="Grupo 35298" transform="translate(11.132 6.047)">
              <g id="Grupo_35286" data-name="Grupo 35286" transform="translate(0)">
                <path id="Trazado_86827" data-name="Trazado 86827" d="M362.895,243.918l-8.489-4.776,8.433-4.725,8.494,4.75Z" transform="translate(-354.405 -234.417)" fill="#00223d"/>
              </g>
              <g id="Grupo_35287" data-name="Grupo 35287" transform="translate(10.083 5.666)">
                <path id="Trazado_86828" data-name="Trazado 86828" d="M374.028,250.329l-8.5-4.767,8.446-4.742,8.481,4.776Z" transform="translate(-365.53 -240.82)" fill="#00223d"/>
              </g>
              <g id="Grupo_35288" data-name="Grupo 35288" transform="translate(20.187 11.344)">
                <path id="Trazado_86829" data-name="Trazado 86829" d="M385.168,256.733l-8.489-4.759,8.424-4.737L393.593,252Z" transform="translate(-376.679 -247.236)" fill="#00223d"/>
              </g>
              <g id="Grupo_35289" data-name="Grupo 35289" transform="translate(30.274 17.005)">
                <path id="Trazado_86830" data-name="Trazado 86830" d="M396.3,263.143l-8.494-4.772,8.428-4.737,8.494,4.767Z" transform="translate(-387.809 -253.634)" fill="#00223d"/>
              </g>
              <g id="Grupo_35290" data-name="Grupo 35290" transform="translate(40.37 22.671)">
                <path id="Trazado_86831" data-name="Trazado 86831" d="M407.429,269.554l-8.481-4.78,8.428-4.737,8.489,4.78Z" transform="translate(-398.948 -260.036)" fill="#00223d"/>
              </g>
              <g id="Grupo_35291" data-name="Grupo 35291" transform="translate(50.461 28.349)">
                <path id="Trazado_86832" data-name="Trazado 86832" d="M418.559,275.962l-8.476-4.763,8.428-4.746L427,271.229Z" transform="translate(-410.082 -266.453)" fill="#00223d"/>
              </g>
              <g id="Grupo_35292" data-name="Grupo 35292" transform="translate(60.553 34.027)">
                <path id="Trazado_86833" data-name="Trazado 86833" d="M429.7,282.374l-8.485-4.767,8.432-4.737,8.481,4.755Z" transform="translate(-421.217 -272.87)" fill="#00223d"/>
              </g>
              <g id="Grupo_35293" data-name="Grupo 35293" transform="translate(70.636 39.689)">
                <path id="Trazado_86834" data-name="Trazado 86834" d="M440.827,288.776l-8.485-4.759,8.441-4.75,8.472,4.776Z" transform="translate(-432.342 -279.267)" fill="#00223d"/>
              </g>
              <g id="Grupo_35294" data-name="Grupo 35294" transform="translate(80.731 45.363)">
                <path id="Trazado_86835" data-name="Trazado 86835" d="M451.966,295.18l-8.485-4.759,8.441-4.742,8.48,4.767Z" transform="translate(-443.481 -285.679)" fill="#00223d"/>
              </g>
              <g id="Grupo_35295" data-name="Grupo 35295" transform="translate(90.823 51.037)">
                <path id="Trazado_86836" data-name="Trazado 86836" d="M463.109,301.6l-8.494-4.772,8.437-4.733,8.476,4.767Z" transform="translate(-454.616 -292.091)" fill="#00223d"/>
              </g>
              <g id="Grupo_35296" data-name="Grupo 35296" transform="translate(100.914 56.698)">
                <path id="Trazado_86837" data-name="Trazado 86837" d="M474.239,308.006l-8.489-4.78,8.437-4.737,8.481,4.776Z" transform="translate(-465.75 -298.489)" fill="#00223d"/>
              </g>
              <g id="Grupo_35297" data-name="Grupo 35297" transform="translate(111.005 62.372)">
                <path id="Trazado_86838" data-name="Trazado 86838" d="M485.369,314.418l-8.485-4.772,8.433-4.746,8.494,4.772Z" transform="translate(-476.884 -304.901)" fill="#00223d"/>
              </g>
            </g>
            <g id="Grupo_35311" data-name="Grupo 35311" transform="translate(0 12.302)">
              <g id="Grupo_35299" data-name="Grupo 35299" transform="translate(0)">
                <path id="Trazado_86839" data-name="Trazado 86839" d="M350.608,250.99l-8.485-4.763,8.433-4.742,8.481,4.763Z" transform="translate(-342.123 -241.485)" fill="#00223d"/>
              </g>
              <g id="Grupo_35300" data-name="Grupo 35300" transform="translate(10.096 5.666)">
                <path id="Trazado_86840" data-name="Trazado 86840" d="M361.738,257.4l-8.476-4.776,8.429-4.737,8.485,4.772Z" transform="translate(-353.262 -247.888)" fill="#00223d"/>
              </g>
              <g id="Grupo_35301" data-name="Grupo 35301" transform="translate(20.174 11.34)">
                <path id="Trazado_86841" data-name="Trazado 86841" d="M372.88,263.809l-8.5-4.767,8.441-4.742,8.485,4.78Z" transform="translate(-364.382 -254.3)" fill="#00223d"/>
              </g>
              <g id="Grupo_35302" data-name="Grupo 35302" transform="translate(30.274 17.014)">
                <path id="Trazado_86842" data-name="Trazado 86842" d="M384.007,270.225l-8.48-4.772,8.433-4.742,8.489,4.759Z" transform="translate(-375.526 -260.712)" fill="#00223d"/>
              </g>
              <g id="Grupo_35303" data-name="Grupo 35303" transform="translate(40.37 22.688)">
                <path id="Trazado_86843" data-name="Trazado 86843" d="M395.142,276.62l-8.476-4.763,8.42-4.734,8.5,4.759Z" transform="translate(-386.666 -267.123)" fill="#00223d"/>
              </g>
              <g id="Grupo_35304" data-name="Grupo 35304" transform="translate(50.453 28.353)">
                <path id="Trazado_86844" data-name="Trazado 86844" d="M406.271,283.035l-8.481-4.763,8.437-4.746,8.494,4.771Z" transform="translate(-397.79 -273.526)" fill="#00223d"/>
              </g>
              <g id="Grupo_35305" data-name="Grupo 35305" transform="translate(60.557 34.027)">
                <path id="Trazado_86845" data-name="Trazado 86845" d="M417.42,289.447l-8.48-4.776,8.428-4.733,8.485,4.776Z" transform="translate(-408.939 -279.938)" fill="#00223d"/>
              </g>
              <g id="Grupo_35306" data-name="Grupo 35306" transform="translate(70.64 39.697)">
                <path id="Trazado_86846" data-name="Trazado 86846" d="M428.549,295.85l-8.485-4.759,8.428-4.746,8.494,4.776Z" transform="translate(-420.064 -286.345)" fill="#00223d"/>
              </g>
              <g id="Grupo_35307" data-name="Grupo 35307" transform="translate(80.736 45.354)">
                <path id="Trazado_86847" data-name="Trazado 86847" d="M439.684,302.264l-8.481-4.771,8.437-4.755,8.481,4.784Z" transform="translate(-431.203 -292.738)" fill="#00223d"/>
              </g>
              <g id="Grupo_35308" data-name="Grupo 35308" transform="translate(90.827 51.037)">
                <path id="Trazado_86848" data-name="Trazado 86848" d="M450.818,308.668l-8.481-4.767,8.428-4.742,8.493,4.759Z" transform="translate(-442.338 -299.159)" fill="#00223d"/>
              </g>
              <g id="Grupo_35309" data-name="Grupo 35309" transform="translate(100.909 56.715)">
                <path id="Trazado_86849" data-name="Trazado 86849" d="M461.956,315.081l-8.494-4.772,8.437-4.733,8.485,4.759Z" transform="translate(-453.463 -305.576)" fill="#00223d"/>
              </g>
              <g id="Grupo_35310" data-name="Grupo 35310" transform="translate(111.005 62.381)">
                <path id="Trazado_86850" data-name="Trazado 86850" d="M473.091,321.483,464.6,316.72l8.441-4.742,8.476,4.767Z" transform="translate(-464.602 -311.979)" fill="#00223d"/>
              </g>
            </g>
          </g>
          <path id="Trazado_86851" data-name="Trazado 86851" d="M357.378,316.358,353,313.9a2.588,2.588,0,0,1-1.114-2.072c0-.8.5-1.164,1.114-.82l4.375,2.458a2.586,2.586,0,0,1,1.115,2.073C358.492,316.334,357.991,316.7,357.378,316.358Z" transform="translate(-294.387 -227.226)" fill="#fff"/>
        </g>
        <g id="Grupo_35315" data-name="Grupo 35315" transform="translate(82.603 0)">
          <g id="Grupo_35314" data-name="Grupo 35314">
            <path id="Trazado_86852" data-name="Trazado 86852" d="M382.148,106.625l.149-.087c-.047.028-.092.06-.138.089Z" transform="translate(-379.825 -102.108)" fill="#757575"/>
            <path id="Trazado_86853" data-name="Trazado 86853" d="M525.994,182.173a13.905,13.905,0,0,0-6.952-9.839L393.922,102.205a5.2,5.2,0,0,0-5.09-.017c.02-.029-6.343,3.68-6.343,3.68a5.2,5.2,0,0,1,5.073.022l125,70.061a13.889,13.889,0,0,1,6.9,9.59,13.525,13.525,0,0,1,.254,2.465v80.819a6.677,6.677,0,0,1-3.326,5.771l6.109-3.332A6.67,6.67,0,0,0,526.2,265.3V184.4A13.5,13.5,0,0,0,525.994,182.173Z" transform="translate(-379.857 -101.532)" fill="#afafaf"/>
            <path id="Trazado_86854" data-name="Trazado 86854" d="M381.919,106.531c.046-.029.091-.061.138-.089s.106-.064.161-.093a5.2,5.2,0,0,1,5.073.022l125,70.061a13.843,13.843,0,0,1,7.149,12.055v80.819a6.643,6.643,0,0,1-3.324,5.758,6.983,6.983,0,0,1-7,.105L386.642,207.227a13.563,13.563,0,0,1-7.057-11.838V110.726A4.932,4.932,0,0,1,381.919,106.531Z" transform="translate(-379.585 -102.012)" fill="#e8e8e8"/>
          </g>
          <path id="Trazado_86855" data-name="Trazado 86855" d="M511,180.173,386.17,110.164a2.189,2.189,0,0,0-3.278,1.857l.191,83.581a11.108,11.108,0,0,0,5.785,9.673l119.506,66.188a4.978,4.978,0,0,0,7.434-4.227V188.281A9.312,9.312,0,0,0,511,180.173Z" transform="translate(-379.895 -102.492)" fill="url(#linear-gradient)"/>
        </g>
        <g id="Grupo_35316" data-name="Grupo 35316" transform="translate(91.098 79.751)">
          <path id="Trazado_86856" data-name="Trazado 86856" d="M393.215,198.713c0-1.717,1.232-2.415,2.76-1.577l-.009-4.562c-3.863-2.149-6.988-.4-7.008,3.913l4.264,2.4C393.22,198.832,393.215,198.772,393.215,198.713Z" transform="translate(-388.958 -191.655)" fill="#fff"/>
          <path id="Trazado_86857" data-name="Trazado 86857" d="M393.222,199.52l-4.264-2.4a13.742,13.742,0,0,0,2.07,6.8l3.07-1.8A5.63,5.63,0,0,1,393.222,199.52Z" transform="translate(-388.958 -192.284)" fill="#3e2ea6"/>
          <path id="Trazado_86858" data-name="Trazado 86858" d="M403.282,204.562a15.124,15.124,0,0,0-7.055-11.842l-.047-.026.009,4.562a6,6,0,0,1,2.837,4.733c0,1.732-1.253,2.429-2.8,1.558a5.615,5.615,0,0,1-1.915-1.934l-3.07,1.8a14.266,14.266,0,0,0,4.97,5.113c3.912,2.205,7.071.447,7.071-3.919Z" transform="translate(-389.172 -191.775)" fill="#00223d"/>
        </g>
        <g id="Grupo_35319" data-name="Grupo 35319" transform="translate(115.39 38.15)">
          <g id="Grupo_35317" data-name="Grupo 35317" transform="translate(4.307 4.5)">
            <path id="Trazado_86859" data-name="Trazado 86859" d="M423.5,150.119v1.094c-1.108-.611-2-.109-2.015,1.127l-.975-.538C420.517,149.954,421.854,149.2,423.5,150.119Z" transform="translate(-420.513 -149.729)" fill="#4a5ea5"/>
          </g>
          <g id="Grupo_35318" data-name="Grupo 35318">
            <path id="Trazado_86860" data-name="Trazado 86860" d="M423.684,158.364c2.716,1.533,4.926.3,4.926-2.745a10.579,10.579,0,0,0-4.926-8.3c-.02-.011-.038-.019-.057-.029v-2.641c.019.011.038.019.057.031,4.014,2.265,7.279,7.77,7.279,12.272s-3.266,6.321-7.279,4.056l-.057-.035v-2.641C423.646,158.339,423.664,158.352,423.684,158.364Z" transform="translate(-416.498 -144.644)" fill="#00223d"/>
            <path id="Trazado_86861" data-name="Trazado 86861" d="M418.116,150.6c0,.017,0,.033,0,.05a10.59,10.59,0,0,0,4.868,8.269v2.641c-3.987-2.285-7.222-7.758-7.222-12.238C415.762,149.3,418.116,150.6,418.116,150.6Z" transform="translate(-415.761 -145.182)" fill="#8a7cbf"/>
          </g>
        </g>
        <g id="Grupo_35328" data-name="Grupo 35328" transform="translate(93.017 23.389)">
          <g id="Grupo_35321" data-name="Grupo 35321" transform="translate(0)">
            <g id="Grupo_35320" data-name="Grupo 35320">
              <path id="Trazado_86862" data-name="Trazado 86862" d="M393.6,161.093l-.033,2.776-2.494-1.443.033-2.776Z" transform="translate(-391.076 -131.609)" fill="#8a7cbf"/>
              <path id="Trazado_86863" data-name="Trazado 86863" d="M393.678,154.756l-.033,2.775-2.494-1.443.033-2.776Z" transform="translate(-391.083 -130.88)" fill="#8a7cbf"/>
              <path id="Trazado_86864" data-name="Trazado 86864" d="M393.752,148.418l-.033,2.776-2.494-1.443.033-2.776Z" transform="translate(-391.09 -130.151)" fill="#8a7cbf"/>
              <path id="Trazado_86865" data-name="Trazado 86865" d="M393.826,142.081l-.033,2.776-2.494-1.443.033-2.775Z" transform="translate(-391.097 -129.421)" fill="#8a7cbf"/>
              <path id="Trazado_86866" data-name="Trazado 86866" d="M393.9,135.744l-.033,2.775-2.494-1.443.033-2.776Z" transform="translate(-391.104 -128.692)" fill="#8a7cbf" opacity="0.2"/>
              <path id="Trazado_86867" data-name="Trazado 86867" d="M393.975,129.406l-.034,2.776-2.494-1.443.033-2.776Z" transform="translate(-391.111 -127.963)" fill="#8a7cbf" opacity="0.2"/>
            </g>
          </g>
          <g id="Grupo_35323" data-name="Grupo 35323" transform="translate(3.827 2.214)">
            <g id="Grupo_35322" data-name="Grupo 35322" transform="translate(0)">
              <path id="Trazado_86868" data-name="Trazado 86868" d="M397.825,163.6l-.033,2.776-2.494-1.443.033-2.776Z" transform="translate(-395.298 -134.112)" fill="#8a7cbf" opacity="0.2"/>
              <path id="Trazado_86869" data-name="Trazado 86869" d="M397.9,157.258l-.033,2.775-2.494-1.443.033-2.775Z" transform="translate(-395.305 -133.382)" fill="#8a7cbf"/>
              <path id="Trazado_86870" data-name="Trazado 86870" d="M397.974,150.921l-.033,2.776-2.494-1.443.033-2.776Z" transform="translate(-395.312 -132.653)" fill="#8a7cbf"/>
              <path id="Trazado_86871" data-name="Trazado 86871" d="M398.048,144.583l-.033,2.776-2.494-1.443.033-2.776Z" transform="translate(-395.319 -131.924)" fill="#8a7cbf"/>
              <path id="Trazado_86872" data-name="Trazado 86872" d="M398.123,138.246l-.033,2.776-2.494-1.443.033-2.776Z" transform="translate(-395.326 -131.194)" fill="#8a7cbf" opacity="0.2"/>
              <path id="Trazado_86873" data-name="Trazado 86873" d="M398.2,131.908l-.033,2.776-2.494-1.443.033-2.776Z" transform="translate(-395.333 -130.465)" fill="#8a7cbf" opacity="0"/>
            </g>
          </g>
          <g id="Grupo_35325" data-name="Grupo 35325" transform="translate(7.721 4.468)">
            <g id="Grupo_35324" data-name="Grupo 35324">
              <path id="Trazado_86874" data-name="Trazado 86874" d="M402.123,166.143l-.033,2.776-2.494-1.443.033-2.776Z" transform="translate(-399.595 -136.659)" fill="#8a7cbf"/>
              <path id="Trazado_86875" data-name="Trazado 86875" d="M402.2,159.805l-.033,2.776-2.494-1.443.033-2.775Z" transform="translate(-399.602 -135.93)" fill="#8a7cbf"/>
              <path id="Trazado_86876" data-name="Trazado 86876" d="M402.272,153.468l-.033,2.776-2.494-1.443.033-2.776Z" transform="translate(-399.609 -135.2)" fill="#8a7cbf" opacity="0.2"/>
              <path id="Trazado_86877" data-name="Trazado 86877" d="M402.346,147.13l-.033,2.775-2.494-1.443.034-2.775Z" transform="translate(-399.616 -134.471)" fill="#8a7cbf"/>
              <path id="Trazado_86878" data-name="Trazado 86878" d="M402.42,140.793l-.034,2.776-2.494-1.443.033-2.776Z" transform="translate(-399.623 -133.742)" fill="#8a7cbf"/>
              <path id="Trazado_86879" data-name="Trazado 86879" d="M402.495,134.456l-.033,2.776-2.494-1.443.033-2.776Z" transform="translate(-399.63 -133.012)" fill="#8a7cbf" opacity="0"/>
            </g>
          </g>
          <g id="Grupo_35327" data-name="Grupo 35327" transform="translate(11.343 6.564)">
            <g id="Grupo_35326" data-name="Grupo 35326" transform="translate(0)">
              <path id="Trazado_86880" data-name="Trazado 86880" d="M406.119,168.511l-.033,2.776-2.494-1.443.033-2.776Z" transform="translate(-403.591 -139.027)" fill="#8a7cbf"/>
              <path id="Trazado_86881" data-name="Trazado 86881" d="M406.193,162.174l-.033,2.775-2.494-1.443.033-2.775Z" transform="translate(-403.598 -138.298)" fill="#8a7cbf"/>
              <path id="Trazado_86882" data-name="Trazado 86882" d="M406.267,155.836l-.033,2.776-2.494-1.443.033-2.775Z" transform="translate(-403.605 -137.569)" fill="#8a7cbf"/>
              <path id="Trazado_86883" data-name="Trazado 86883" d="M406.342,149.5l-.033,2.775-2.494-1.443.033-2.776Z" transform="translate(-403.612 -136.839)" fill="#8a7cbf"/>
              <path id="Trazado_86884" data-name="Trazado 86884" d="M406.416,143.161l-.033,2.776-2.494-1.443.033-2.776Z" transform="translate(-403.619 -136.11)" fill="#8a7cbf"/>
              <path id="Trazado_86885" data-name="Trazado 86885" d="M406.49,136.824l-.033,2.776-2.494-1.443.033-2.776Z" transform="translate(-403.626 -135.381)" fill="#8a7cbf"/>
            </g>
          </g>
        </g>
      </g>
      <g id="Grupo_1026040" data-name="Grupo 1026040" transform="translate(1286.786 320.001)">
        <path id="Trazado_86655" data-name="Trazado 86655" d="M560.755,211.819a.509.509,0,0,0-.2.062c-.037,0,1.573-1,1.573-1,.043.267.1.536.155.806Z" transform="translate(-560.241 -196.356)" fill="#947baf"/>
        <path id="Trazado_86656" data-name="Trazado 86656" d="M574.956,227.348a5.565,5.565,0,0,0,4.545-.42l.123.15-4.951,2.737a.935.935,0,0,0,.284-.754Z" transform="translate(-561.563 -198.202)" fill="url(#linear-gradient-2)"/>
        <path id="Trazado_86657" data-name="Trazado 86657" d="M588.091,218.551l-1.513-1.832a10.63,10.63,0,0,0,.32-2.63,13.878,13.878,0,0,0-.245-2.516l1.569-.874c.375-.137.486-.687.235-1.315L587.2,206.23a2.343,2.343,0,0,0-.406-.662,1.312,1.312,0,0,0-.985-.541l-1.619.135a21.076,21.076,0,0,0-4.426-5.334V197.9a2.262,2.262,0,0,0-.16-.8,2.173,2.173,0,0,0-.858-1.1l-2.519-1.419a.622.622,0,0,0-.764.022l-4.934,2.7-1.358-1.642c-.4-.482-.889-.674-1.207-.516,0-.027-5.906,3.259-5.906,3.259a1.281,1.281,0,0,1,1.112.569l1.616,1.957a5.234,5.234,0,0,1,3.406-.562,7.836,7.836,0,0,1,1.015.219v-1.938a1.466,1.466,0,0,1,.02-.235,1.115,1.115,0,0,1,.057-.22.849.849,0,0,1,.1-.181.6.6,0,0,1,.217-.184c.007,0,.724-.407.724-.407l-.716.405a.543.543,0,0,1,.285-.042,1.061,1.061,0,0,1,.162.036,1.012,1.012,0,0,1,.171.077l2.519,1.42a2.088,2.088,0,0,1,.8.963c.007.014.012.029.018.044.031.073.06.146.085.224s.045.145.062.219c.005.019.007.039.012.058.011.056.023.111.029.166a1.72,1.72,0,0,1,.016.226v1.935a19.717,19.717,0,0,1,2.953,3.129l.052.071q.238.315.467.639c.057.081.11.166.167.249.109.161.219.32.323.483q.24.372.463.752l.093-.008,1.525-.127a1.034,1.034,0,0,1,.67.245,1.749,1.749,0,0,1,.18.157,2.241,2.241,0,0,1,.164.178c.037.045.073.09.108.139s.074.106.108.162c.016.027.031.054.046.082a2.026,2.026,0,0,1,.115.239l1.26,3.154a1.327,1.327,0,0,1,.043,1.061,1.881,1.881,0,0,1-.216.225.521.521,0,0,1-.141.05.432.432,0,0,1-.06.012l-.292.025-1.285.107a14.468,14.468,0,0,1,.39,3.226c0,.239-.007.473-.022.7-.013.2-.033.393-.055.583,0,.025,0,.051-.008.076a8.439,8.439,0,0,1-.243,1.211,5.42,5.42,0,0,0,.43.571l1.091,1.321a2.3,2.3,0,0,1,.181.254l.035.061c.041.071.079.142.111.214.007.017.013.034.021.05a1.992,1.992,0,0,1,.086.24,1.845,1.845,0,0,1,.06.289,1.334,1.334,0,0,1,.01.176,1.226,1.226,0,0,1-.013.173c0,.026-.011.05-.016.073s-.015.063-.025.091a.611.611,0,0,1-.076.147l-1.259,1.734a.528.528,0,0,1-.056.055s5.772-3.172,5.771-3.178a.49.49,0,0,0,.286-.19l1.259-1.734a.941.941,0,0,0,.121-.664A2.207,2.207,0,0,0,588.091,218.551Z" transform="translate(-560.381 -194.466)" fill="#8a7cbf"/>
        <path id="Trazado_86658" data-name="Trazado 86658" d="M560.717,202.542l1.58,1.912a9.365,9.365,0,0,0-.386,2.773,13.678,13.678,0,0,0,.186,2.2c.043.267.1.536.155.806l-1.528.127a.508.508,0,0,0-.2.062c-.324.173-.409.695-.172,1.287l1.259,3.154c.28.7.907,1.242,1.391,1.2l1.5-.124a20.856,20.856,0,0,0,4.548,5.537v1.711a2.373,2.373,0,0,0,1.019,1.9l2.519,1.42a.633.633,0,0,0,.735,0,.935.935,0,0,0,.284-.754v-1.713a5.565,5.565,0,0,0,4.544-.419l.123.15,1.37,1.658c.457.553,1.036.726,1.336.421a.522.522,0,0,0,.055-.055l1.26-1.734a.607.607,0,0,0,.076-.147.889.889,0,0,0,.025-.091c.005-.024.012-.048.016-.074a1.168,1.168,0,0,0,.013-.139,1.473,1.473,0,0,0-.01-.21,1.836,1.836,0,0,0-.052-.265,2.147,2.147,0,0,0-.094-.265c-.007-.017-.013-.034-.021-.05a2.368,2.368,0,0,0-.111-.214c-.013-.02-.023-.042-.034-.061a2.307,2.307,0,0,0-.181-.254l-1.091-1.321-.44-.532a8.718,8.718,0,0,0,.253-1.249c0-.025,0-.051.008-.076.023-.19.042-.383.055-.583q.022-.341.022-.7a14.453,14.453,0,0,0-.39-3.225l1.285-.107.292-.024c.021,0,.04-.009.06-.013a.494.494,0,0,0,.145-.053.478.478,0,0,0,.115-.088.566.566,0,0,0,.1-.134,1.325,1.325,0,0,0-.044-1.061l-1.26-3.154a2.146,2.146,0,0,0-.115-.239c-.016-.028-.03-.055-.046-.082-.033-.056-.071-.11-.108-.162s-.071-.094-.108-.139a2.224,2.224,0,0,0-.164-.178,2.12,2.12,0,0,0-.18-.157,1.034,1.034,0,0,0-.67-.245l-1.525.127-.093.008q-.224-.381-.462-.752c-.105-.163-.216-.322-.324-.482-.056-.083-.11-.168-.167-.25q-.228-.325-.467-.639l-.052-.071a19.678,19.678,0,0,0-2.941-3.119c-.012-.01-.012-.676-.012-.676v-1.269a1.753,1.753,0,0,0-.015-.226c-.006-.055-.018-.111-.029-.166,0-.019-.007-.039-.012-.058-.016-.073-.038-.146-.063-.222s-.053-.148-.084-.22c-.006-.015-.011-.03-.018-.044a2.088,2.088,0,0,0-.8-.963l-2.519-1.42a1,1,0,0,0-.171-.077.739.739,0,0,0-.135-.03.583.583,0,0,0-.321.038.57.57,0,0,0-.2.167.772.772,0,0,0-.1.168,1.146,1.146,0,0,0-.065.219,1.69,1.69,0,0,0-.024.267v1.938a7.839,7.839,0,0,0-1.015-.219,5.235,5.235,0,0,0-3.406.562l-1.616-1.957a1.234,1.234,0,0,0-1.1-.558.492.492,0,0,0-.291.191l-1.259,1.734A1.647,1.647,0,0,0,560.717,202.542Zm3.429,7.008a4.673,4.673,0,0,1,1.006-3.169,2.929,2.929,0,0,1,1.044-.754c-.4.17.727-.4.727-.4,1.1-.691,2.666-.635,4.4.345.146.081.29.171.433.263l.1.063c.14.093.279.188.416.29l.055.042q.187.141.37.291l.084.07q.2.166.391.344l.075.071c.116.109.23.219.342.335.02.02.041.04.061.061.124.128.247.26.366.394.027.03.053.06.08.091.114.13.228.263.337.4.139.171.251.318.361.466l.074.1c.109.15.216.3.319.456.121.181.215.33.307.48.02.034.041.066.061.1q.143.238.277.479l.042.078q.12.22.231.443c.015.029.03.058.044.088q.121.247.231.5c.015.034.03.067.044.1q.1.234.193.469c.007.018.015.035.021.054.065.169.126.34.183.51l.036.11c.056.173.109.346.158.519.054.2.1.4.145.592.005.027.012.052.017.079q.058.281.1.56l.015.1q.039.277.062.551c0,.028,0,.056.005.084.014.19.022.381.022.567a4.182,4.182,0,0,1-1.581,3.668c-.058.039-.113.082-.174.117l-.056.029-.913.48c-.053.036-.109.07-.165.1a2.983,2.983,0,0,1-.309.148,3.14,3.14,0,0,1-.835.219,5.238,5.238,0,0,1-3.149-.786A12.97,12.97,0,0,1,564.145,209.55Z" transform="translate(-560.208 -194.898)" fill="#dad6f7"/>
        <path id="Trazado_86659" data-name="Trazado 86659" d="M576.269,219.811a5.23,5.23,0,0,0,.6-2.583c0-.2-.009-.411-.026-.619l0-.049c-.016-.2-.042-.411-.073-.619l-.007-.049q-.049-.317-.121-.638c-.055-.249-.111-.469-.175-.69-.11-.378-.238-.756-.387-1.13s-.315-.749-.5-1.11c-.192-.382-.387-.731-.6-1.072l-.025-.041q-.31-.5-.661-.977l-.037-.05c-.115-.154-.232-.305-.353-.454l-.034-.041c-.112-.136-.226-.269-.341-.4l-.049-.056c-.122-.136-.246-.269-.373-.4l-.064-.065c-.116-.117-.233-.231-.351-.341l-.052-.049c-.129-.119-.26-.234-.393-.344l-.086-.071c-.125-.1-.25-.2-.377-.3l-.039-.029c-.136-.1-.274-.2-.412-.288l-.1-.064c-.141-.091-.283-.179-.427-.259a5.838,5.838,0,0,0-2.442-.8,3.348,3.348,0,0,0-1.562.245c-.4.17.727-.4.727-.4,1.1-.691,2.667-.635,4.4.345.146.081.29.171.432.263l.1.063c.139.093.279.188.416.29l.054.042c.125.094.248.191.37.291l.084.07q.2.166.391.344l.075.071c.116.109.23.219.343.335.02.02.041.04.061.061.124.128.247.26.366.394l.08.091c.114.13.227.263.337.4.139.171.251.318.361.466l.075.1c.109.15.216.3.319.456.12.181.215.33.307.48l.061.1q.142.238.276.479l.043.078q.119.22.231.443c.015.029.03.058.043.088q.121.247.231.5c.015.034.03.067.044.1q.1.234.193.469c.007.018.014.035.021.054.065.169.126.34.183.51l.036.11c.056.173.11.346.158.52.054.2.1.4.145.592.005.027.012.052.017.079q.059.281.1.56l.015.1c.026.185.047.369.061.551,0,.028,0,.056.006.084.014.19.022.38.022.567a4.182,4.182,0,0,1-1.581,3.668c-.058.039-.113.082-.174.117l-.056.029-.913.48A3.142,3.142,0,0,0,576.269,219.811Z" transform="translate(-560.818 -195.75)" fill="#3e2ea6"/>
        <path id="Trazado_86660" data-name="Trazado 86660" d="M565.558,207.312a4.675,4.675,0,0,0-1.006,3.169,12.971,12.971,0,0,0,6.054,10.2,5.24,5.24,0,0,0,3.149.786,3.137,3.137,0,0,0,.835-.219,3.009,3.009,0,0,0,.309-.148c.056-.032.111-.065.165-.1a3.143,3.143,0,0,0,1-1.105,5.23,5.23,0,0,0,.6-2.583c0-.2-.009-.411-.025-.619l0-.049c-.016-.2-.042-.411-.073-.619l-.007-.049q-.049-.317-.121-.638c-.055-.249-.111-.469-.175-.69-.11-.378-.238-.756-.391-1.142s-.312-.737-.493-1.1c-.192-.382-.387-.731-.6-1.072l-.025-.041c-.207-.335-.428-.661-.661-.977l-.037-.05c-.115-.154-.232-.305-.353-.454l-.034-.041c-.111-.136-.226-.269-.341-.4l-.049-.056q-.184-.2-.374-.4l-.064-.065c-.116-.117-.233-.231-.352-.341l-.052-.049c-.129-.119-.26-.234-.393-.344l-.086-.071c-.125-.1-.25-.2-.377-.3l-.039-.029c-.136-.1-.274-.2-.412-.288l-.1-.064c-.141-.091-.283-.179-.427-.259a5.838,5.838,0,0,0-2.441-.8,3.349,3.349,0,0,0-1.563.245A2.929,2.929,0,0,0,565.558,207.312Zm2.027,5.794c-.01-.047-.016-.092-.025-.138-.017-.088-.035-.176-.048-.261-.008-.056-.012-.11-.018-.165-.009-.073-.018-.146-.023-.217s0-.116-.006-.174-.006-.126,0-.187.005-.119.009-.179.005-.109.011-.161.016-.12.025-.18.014-.092.023-.137c.013-.061.028-.119.044-.178.01-.038.02-.077.032-.114.019-.059.042-.117.064-.173.013-.031.025-.062.038-.092.026-.058.055-.113.086-.166.014-.025.027-.049.042-.072a1.581,1.581,0,0,1,.109-.157l.043-.053a1.535,1.535,0,0,1,.133-.142l.041-.037a1.506,1.506,0,0,1,.16-.125,1.646,1.646,0,0,1,.223-.127,1.79,1.79,0,0,1,.245-.091,1.864,1.864,0,0,1,.266-.053,2.163,2.163,0,0,1,.525,0c1.718.21,3.66,2.249,4.337,4.556.049.166.088.328.12.488.011.049.018.1.026.144.021.112.038.222.051.33.005.05.011.1.015.149.01.111.015.22.016.327,0,.035,0,.072,0,.107a3.787,3.787,0,0,1-.026.42,3.207,3.207,0,0,1-.07.369c-.007.027-.015.053-.023.081a2.679,2.679,0,0,1-.091.269c-.01.025-.02.05-.031.073a2.254,2.254,0,0,1-.141.266,1.849,1.849,0,0,1-.224.289,1.692,1.692,0,0,1-.151.137c-.028.023-.058.043-.088.064s-.07.048-.106.069-.062.034-.093.05a1.4,1.4,0,0,1-.146.063c-.023.009-.044.02-.068.027a1.6,1.6,0,0,1-.228.057c-.026.005-.054.008-.082.011a1.827,1.827,0,0,1-.187.017l-.082,0a2.341,2.341,0,0,1-.279-.016c-1.718-.21-3.66-2.249-4.336-4.556C567.651,213.38,567.616,213.242,567.585,213.105Z" transform="translate(-560.615 -195.829)" fill="#8a7cbf"/>
        <path id="Trazado_86661" data-name="Trazado 86661" d="M567.813,213.149c-.008-.056-.012-.11-.018-.165-.009-.073-.018-.146-.023-.217s0-.116-.006-.174-.005-.126,0-.187.006-.119.009-.179.006-.109.011-.161.016-.12.026-.18.013-.092.023-.137c.013-.061.028-.119.044-.178.01-.038.02-.077.032-.114.02-.059.042-.117.065-.173.013-.031.024-.062.038-.092.026-.058.055-.113.086-.166.014-.025.027-.049.042-.072a1.64,1.64,0,0,1,.109-.157l.043-.053a1.559,1.559,0,0,1,.133-.142l.041-.037a1.508,1.508,0,0,1,.16-.125,1.635,1.635,0,0,1,.223-.127,1.9,1.9,0,0,1,.245-.091,1.858,1.858,0,0,1,.265-.053,2.11,2.11,0,0,1,.285-.015,3.414,3.414,0,0,0-.374,3.313c.677,2.307,2.619,4.347,4.337,4.556a2.21,2.21,0,0,0,.24.014,1.675,1.675,0,0,1-.151.137c-.028.023-.059.043-.088.064s-.07.048-.106.069-.062.035-.093.05a1.414,1.414,0,0,1-.146.063c-.023.009-.044.02-.068.027a1.586,1.586,0,0,1-.229.057c-.026.005-.054.008-.081.012a1.849,1.849,0,0,1-.187.017l-.082,0a2.335,2.335,0,0,1-.279-.016c-1.717-.21-3.66-2.249-4.337-4.556-.041-.141-.076-.279-.107-.415-.01-.047-.016-.092-.025-.138C567.844,213.323,567.825,213.234,567.813,213.149Z" transform="translate(-560.916 -196.272)" fill="#3e2ea6"/>
      </g>
      <g id="Grupo_1026041" data-name="Grupo 1026041" transform="translate(1037.988 268.206)">
        <g id="Grupo_35231" data-name="Grupo 35231" transform="translate(0)">
          <path id="Trazado_86663" data-name="Trazado 86663" d="M360.209,200.351l-29.351-16.4a9.674,9.674,0,0,0-9.381-.011l-28.668,15.94v10.061l24.122,13.784H331.14l29.152-17.289A3.477,3.477,0,0,0,360.209,200.351Z" transform="translate(-286.36 -141.32)" fill="#eceff4" opacity="0.43"/>
          <g id="Grupo_35230" data-name="Grupo 35230">
            <path id="Trazado_86664" data-name="Trazado 86664" d="M285.693,155.577v47.654a2.108,2.108,0,0,0,1.093,1.844l25.657,14.463a7.739,7.739,0,0,0,7.578,0l25.572-14.416a2.02,2.02,0,0,0,1.043-1.892l.158-47.467Z" transform="translate(-285.693 -138.196)" fill="#e8e8e8"/>
            <path id="Trazado_86665" data-name="Trazado 86665" d="M312.475,169.529l-25.657-14.463a2.1,2.1,0,0,1,0-3.687l25.8-14.543a7.036,7.036,0,0,1,6.891,0l26.12,14.723a1.916,1.916,0,0,1,.2,3.411l-25.774,14.558A7.74,7.74,0,0,1,312.475,169.529Z" transform="translate(-285.696 -135.936)" fill="#d9d5d5"/>
          </g>
        </g>
        <g id="Grupo_35232" data-name="Grupo 35232" transform="translate(2.849 24.627)">
          <path id="Trazado_86666" data-name="Trazado 86666" d="M290.106,199.882V164.037a.907.907,0,0,1,.031-.218.974.974,0,0,0-1.3.9v35.846a1.562,1.562,0,0,0,.8,1.358l22.339,12.584a.72.72,0,0,0,1.079-.609v-.18L290.91,201.241A1.563,1.563,0,0,1,290.106,199.882Z" transform="translate(-288.836 -163.765)" fill="#12263f"/>
          <path id="Trazado_86667" data-name="Trazado 86667" d="M312.11,176.1l-21.67-12.206a.955.955,0,0,0-.173-.07.907.907,0,0,0-.031.219v35.845a1.563,1.563,0,0,0,.8,1.359l22.149,12.477v-35.8A2.1,2.1,0,0,0,312.11,176.1Z" transform="translate(-288.967 -163.772)" fill="#4adbd1"/>
        </g>
        <g id="Grupo_35233" data-name="Grupo 35233" transform="translate(6.295 31.975)">
          <path id="Trazado_86668" data-name="Trazado 86668" d="M297.586,181.27c1.7.958,3.079.188,3.079-1.716a6.611,6.611,0,0,0-3.079-5.19c-.036-.019-.036-1.67-.036-1.67a9.782,9.782,0,0,1,4.586,7.69c0,2.814-2.041,3.952-4.55,2.536-.036-.021-.036-1.672-.036-1.672Z" transform="translate(-293.099 -172.141)" fill="#f4a338"/>
          <path id="Trazado_86669" data-name="Trazado 86669" d="M297.153,172.657v1.651c-1.671-.921-3.026-.165-3.042,1.7l-1.473-.812C292.646,172.409,294.665,171.275,297.153,172.657Z" transform="translate(-292.639 -172.069)" fill="#fff"/>
        </g>
        <g id="Grupo_35236" data-name="Grupo 35236" transform="translate(8.161 46.627)">
          <g id="Grupo_35234" data-name="Grupo 35234" transform="translate(4.752 4.965)">
            <path id="Trazado_86670" data-name="Trazado 86670" d="M303.239,194.667v1.206c-1.221-.673-2.211-.12-2.222,1.244l-1.076-.594C299.946,194.485,301.421,193.657,303.239,194.667Z" transform="translate(-299.941 -194.237)" fill="#12263f"/>
          </g>
          <g id="Grupo_35235" data-name="Grupo 35235">
            <path id="Trazado_86671" data-name="Trazado 86671" d="M303.44,203.763c3,1.691,5.434.332,5.434-3.028a11.672,11.672,0,0,0-5.434-9.162c-.022-.012-.043-.02-.063-.033v-2.914c.021.012.042.022.063.035,4.428,2.5,8.031,8.572,8.031,13.538s-3.6,6.975-8.031,4.476l-.063-.038v-2.914C303.4,203.735,303.418,203.75,303.44,203.763Z" transform="translate(-295.511 -188.626)" fill="#b2ebf2"/>
            <path id="Trazado_86672" data-name="Trazado 86672" d="M297.3,195.2c0,.02,0,.037,0,.056a11.686,11.686,0,0,0,5.372,9.123v2.914c-4.4-2.521-7.967-8.559-7.968-13.5C294.7,193.763,297.3,195.2,297.3,195.2Z" transform="translate(-294.698 -189.22)" fill="url(#linear-gradient)"/>
          </g>
        </g>
      </g>
      <g id="Grupo_1026042" data-name="Grupo 1026042" transform="translate(1091.07 238.536)">
        <path id="Trazado_86673" data-name="Trazado 86673" d="M369.421,136l-9.7-5.5a3.161,3.161,0,0,0-3.1,0l-9.272,7.908,7.768,5.428h4.7l9.638-5.8A1.174,1.174,0,0,0,369.421,136Z" transform="translate(-344.551 -105.594)" fill="#d2e1f1" opacity="0.43"/>
        <g id="Grupo_35238" data-name="Grupo 35238" transform="translate(0)">
          <path id="Trazado_86674" data-name="Trazado 86674" d="M364.579,108.86H344.262v26.855a.7.7,0,0,0,.364.613l8.531,4.81a2.571,2.571,0,0,0,2.52,0l8.5-4.794a.67.67,0,0,0,.347-.629h.052Z" transform="translate(-344.262 -103.151)" fill="url(#linear-gradient-4)"/>
          <path id="Trazado_86675" data-name="Trazado 86675" d="M353.168,113.579l-8.532-4.81a.7.7,0,0,1,0-1.226l8.578-4.835a2.337,2.337,0,0,1,2.291,0l8.685,4.9a.674.674,0,0,1,0,1.181l-8.5,4.794A2.575,2.575,0,0,1,353.168,113.579Z" transform="translate(-344.263 -102.408)" fill="#21587b"/>
        </g>
        <g id="Grupo_35240" data-name="Grupo 35240" transform="translate(2.988 1.653)">
          <g id="Grupo_35239" data-name="Grupo 35239">
            <path id="Trazado_86676" data-name="Trazado 86676" d="M353.976,112.357l-6.15-3.467a.5.5,0,0,1,0-.884l6.184-3.486a1.688,1.688,0,0,1,1.651,0l6.262,3.53a.486.486,0,0,1,0,.851l-6.13,3.456A1.854,1.854,0,0,1,353.976,112.357Z" transform="translate(-347.56 -104.279)" fill="#00223d"/>
            <path id="Trazado_86677" data-name="Trazado 86677" d="M347.821,108.468l6.195-3.478a1.7,1.7,0,0,1,1.655,0l6.273,3.522a.484.484,0,0,1,.183.175.484.484,0,0,0-.183-.674l-6.273-3.521a1.7,1.7,0,0,0-1.655,0l-6.195,3.478a.5.5,0,0,0-.2.69A.516.516,0,0,1,347.821,108.468Z" transform="translate(-347.559 -104.276)" fill="url(#linear-gradient-5)"/>
          </g>
        </g>
        <g id="Grupo_35241" data-name="Grupo 35241" transform="translate(14.77 11.826)">
          <path id="Trazado_86678" data-name="Trazado 86678" d="M360.559,116.837a1.25,1.25,0,0,1,.537-1c.3-.166.537.011.537.4V126.1l-1.073.584Z" transform="translate(-360.559 -115.773)" fill="#00223d"/>
          <path id="Trazado_86679" data-name="Trazado 86679" d="M361.632,127.446v8.745a1.253,1.253,0,0,1-.537,1c-.3.166-.537-.012-.537-.4V128.03Z" transform="translate(-360.559 -117.116)" fill="#21587b"/>
        </g>
      </g>
      <g id="Grupo_1026044" data-name="Grupo 1026044" transform="translate(1158.615 295.473)">
        <path id="Trazado_86886" data-name="Trazado 86886" d="M430.677,181.45l-11.888-6.7v1.207l11.888,6.7Z" transform="translate(-418.789 -167.669)" fill="#3e2ea6"/>
        <path id="Trazado_86887" data-name="Trazado 86887" d="M430.677,186.358l-11.888-6.7v1.207l11.888,6.7Z" transform="translate(-418.789 -168.233)" fill="#3e2ea6"/>
        <path id="Trazado_86888" data-name="Trazado 86888" d="M418.789,166.748v1.208l4.157,2.344v-1.207Z" transform="translate(-418.789 -166.748)" fill="#3e2ea6"/>
        <path id="Trazado_86889" data-name="Trazado 86889" d="M418.789,169.415v1.207l4.157,2.344v-1.208Z" transform="translate(-418.789 -167.055)" fill="#3e2ea6"/>
        <path id="Trazado_86890" data-name="Trazado 86890" d="M418.789,188.222v1.207l3.49,1.967v-1.207Z" transform="translate(-418.789 -169.219)" fill="#3e2ea6"/>
        <path id="Trazado_86891" data-name="Trazado 86891" d="M418.789,190.888V192.1l3.49,1.967v-1.207Z" transform="translate(-418.789 -169.526)" fill="#3e2ea6"/>
        <path id="Trazado_86892" data-name="Trazado 86892" d="M418.789,198.888V200.1l8.057,4.542V203.43Z" transform="translate(-418.789 -170.447)" fill="#3e2ea6"/>
        <path id="Trazado_86893" data-name="Trazado 86893" d="M418.789,204.221v1.207l8.057,4.542v-1.207Z" transform="translate(-418.789 -171.06)" fill="#3e2ea6"/>
        <path id="Trazado_86894" data-name="Trazado 86894" d="M418.789,207.064v1.207l3.028,1.707v-1.207Z" transform="translate(-418.789 -171.388)" fill="#3e2ea6"/>
        <path id="Trazado_86895" data-name="Trazado 86895" d="M418.789,215.064v1.207l3.028,1.707V216.77Z" transform="translate(-418.789 -172.308)" fill="#3e2ea6"/>
        <path id="Trazado_86896" data-name="Trazado 86896" d="M418.789,220.4V221.6l3.028,1.707V222.1Z" transform="translate(-418.789 -172.922)" fill="#3e2ea6"/>
      </g>
      <g id="Grupo_1026045" data-name="Grupo 1026045" transform="translate(1178.561 285.605)">
        <path id="Trazado_86897" data-name="Trazado 86897" d="M440.8,155.6v1.256l4.765,2.733.01-1.25Z" transform="translate(-440.796 -155.598)" fill="#3e2ea6"/>
        <path id="Trazado_86898" data-name="Trazado 86898" d="M440.8,158.372v1.256l4.746,2.722.01-1.25Z" transform="translate(-440.796 -155.917)" fill="#3e2ea6"/>
        <path id="Trazado_86899" data-name="Trazado 86899" d="M440.8,161.145V162.4l4.727,2.711.01-1.25Z" transform="translate(-440.796 -156.236)" fill="#3e2ea6"/>
        <path id="Trazado_86900" data-name="Trazado 86900" d="M440.8,163.919v1.256l11.793,6.764.01-1.25Z" transform="translate(-440.796 -156.556)" fill="#3e2ea6"/>
        <path id="Trazado_86901" data-name="Trazado 86901" d="M440.8,169.025v1.256l8.622,4.945.01-1.25Z" transform="translate(-440.796 -157.143)" fill="#3e2ea6"/>
        <path id="Trazado_86902" data-name="Trazado 86902" d="M440.8,171.8v1.256l8.6,4.934.01-1.25Z" transform="translate(-440.796 -157.462)" fill="#3e2ea6"/>
        <path id="Trazado_86903" data-name="Trazado 86903" d="M476.2,192.445l-7.162-4.108-.01,1.25L476.2,193.7Z" transform="translate(-443.44 -159.366)" fill="#3e2ea6"/>
        <path id="Trazado_86904" data-name="Trazado 86904" d="M440.8,174.572v1.256l8.583,4.923.01-1.25Z" transform="translate(-440.796 -157.782)" fill="#3e2ea6"/>
        <path id="Trazado_86905" data-name="Trazado 86905" d="M469.347,173.321,447.29,160.67l.01-1.25,22.057,12.651Z" transform="translate(-441.404 -156.038)" fill="#3e2ea6"/>
        <path id="Trazado_86906" data-name="Trazado 86906" d="M463.8,172.914l-16.533-9.483.01-1.25,16.533,9.483Z" transform="translate(-441.402 -156.356)" fill="#3e2ea6"/>
        <path id="Trazado_86907" data-name="Trazado 86907" d="M475.99,178.895l-9.167-5.258-.01,1.25,9.177,5.264Z" transform="translate(-443.233 -157.674)" fill="#3e2ea6"/>
        <path id="Trazado_86908" data-name="Trazado 86908" d="M474.157,180.371l-26.9-15.429-.01,1.25,26.91,15.435Z" transform="translate(-441.4 -156.673)" fill="#3e2ea6"/>
        <path id="Trazado_86909" data-name="Trazado 86909" d="M475.077,183.808l-18.006-10.328-.01,1.25,18.016,10.333Z" transform="translate(-442.319 -157.656)" fill="#3e2ea6"/>
        <path id="Trazado_86910" data-name="Trazado 86910" d="M474.56,188.541l-23-13.2-.01,1.25,23.015,13.2Z" transform="translate(-441.803 -157.871)" fill="#3e2ea6"/>
        <path id="Trazado_86911" data-name="Trazado 86911" d="M466.269,187.814l-14.745-8.457.01-1.25,14.745,8.457Z" transform="translate(-441.801 -158.188)" fill="#3e2ea6"/>
        <path id="Trazado_86912" data-name="Trazado 86912" d="M474.373,195.236,451.5,182.118l.01-1.25,22.871,13.118Z" transform="translate(-441.799 -158.506)" fill="#3e2ea6"/>
        <path id="Trazado_86913" data-name="Trazado 86913" d="M454.638,187.2l-8.726-5.005.01-1.25,8.727,5.005Z" transform="translate(-441.275 -158.515)" fill="#3e2ea6"/>
        <path id="Trazado_86914" data-name="Trazado 86914" d="M475.053,197.789l-18.236-10.46-.01,1.25,18.246,10.466Z" transform="translate(-442.296 -159.25)" fill="#3e2ea6"/>
        <path id="Trazado_86915" data-name="Trazado 86915" d="M474.03,199.842,445.9,183.707l-.01,1.25L474.03,201.1Z" transform="translate(-441.273 -158.833)" fill="#3e2ea6"/>
        <path id="Trazado_86916" data-name="Trazado 86916" d="M466.392,199.489l-20.522-11.771.01-1.25L466.4,198.239Z" transform="translate(-441.271 -159.151)" fill="#3e2ea6"/>
        <path id="Trazado_86917" data-name="Trazado 86917" d="M476.28,204.239l-6.366-3.651-.01,1.25,6.376,3.657Z" transform="translate(-443.523 -160.775)" fill="#3e2ea6"/>
        <path id="Trazado_86918" data-name="Trazado 86918" d="M440.8,186.255v1.256l8.555,4.907.01-1.25Z" transform="translate(-440.796 -159.126)" fill="#3e2ea6"/>
        <path id="Trazado_86919" data-name="Trazado 86919" d="M440.8,189.029v1.256l22.146,12.7.01-1.25Z" transform="translate(-440.796 -159.445)" fill="#3e2ea6"/>
        <path id="Trazado_86920" data-name="Trazado 86920" d="M475.976,209.533l-9.307-5.338-.01,1.25,9.316,5.344Z" transform="translate(-443.219 -161.191)" fill="#3e2ea6"/>
        <path id="Trazado_86921" data-name="Trazado 86921" d="M440.8,191.8v1.256l16.2,9.293.01-1.25Z" transform="translate(-440.796 -159.765)" fill="#3e2ea6"/>
        <path id="Trazado_86922" data-name="Trazado 86922" d="M440.8,194.576v1.256l19.439,11.15.01-1.25Z" transform="translate(-440.796 -160.084)" fill="#3e2ea6"/>
        <path id="Trazado_86923" data-name="Trazado 86923" d="M468.041,214.493l-21.75-12.475.01-1.25,21.75,12.475Z" transform="translate(-441.311 -160.796)" fill="#3e2ea6"/>
        <path id="Trazado_86924" data-name="Trazado 86924" d="M473.571,220.438l-27.3-15.659.01-1.25,27.3,15.659Z" transform="translate(-441.309 -161.114)" fill="#3e2ea6"/>
      </g>
      <g id="Grupo_1026046" data-name="Grupo 1026046" transform="translate(1178.314 328.127)">
        <path id="Trazado_86925" data-name="Trazado 86925" d="M440.524,203.649v1.256l4.765,2.733.01-1.25Z" transform="translate(-440.524 -203.649)" fill="#3e2ea6"/>
        <path id="Trazado_86926" data-name="Trazado 86926" d="M440.524,206.423v1.256l4.746,2.722.01-1.25Z" transform="translate(-440.524 -203.968)" fill="#3e2ea6"/>
        <path id="Trazado_86927" data-name="Trazado 86927" d="M440.524,209.2v1.256l4.727,2.711.01-1.25Z" transform="translate(-440.524 -204.288)" fill="#3e2ea6"/>
        <path id="Trazado_86928" data-name="Trazado 86928" d="M440.524,211.97v1.256l11.793,6.764.01-1.25Z" transform="translate(-440.524 -204.607)" fill="#3e2ea6"/>
        <path id="Trazado_86929" data-name="Trazado 86929" d="M440.524,217.076v1.256l8.622,4.945.01-1.25Z" transform="translate(-440.524 -205.194)" fill="#3e2ea6"/>
        <path id="Trazado_86930" data-name="Trazado 86930" d="M440.524,219.849v1.256l8.6,4.934.01-1.25Z" transform="translate(-440.524 -205.514)" fill="#3e2ea6"/>
        <path id="Trazado_86931" data-name="Trazado 86931" d="M475.926,240.5l-7.162-4.108-.01,1.25,7.172,4.114Z" transform="translate(-443.169 -207.417)" fill="#3e2ea6"/>
        <path id="Trazado_86932" data-name="Trazado 86932" d="M440.524,222.623v1.256l8.583,4.923.01-1.25Z" transform="translate(-440.524 -205.833)" fill="#3e2ea6"/>
        <path id="Trazado_86933" data-name="Trazado 86933" d="M469.076,221.373l-22.057-12.651.01-1.25,22.057,12.651Z" transform="translate(-441.133 -204.089)" fill="#3e2ea6"/>
        <path id="Trazado_86934" data-name="Trazado 86934" d="M463.53,220.965,447,211.482l.01-1.25,16.533,9.483Z" transform="translate(-441.131 -204.407)" fill="#3e2ea6"/>
        <path id="Trazado_86935" data-name="Trazado 86935" d="M475.719,226.946l-9.167-5.258-.01,1.25,9.177,5.264Z" transform="translate(-442.962 -205.725)" fill="#3e2ea6"/>
        <path id="Trazado_86936" data-name="Trazado 86936" d="M473.886,228.422l-26.9-15.429-.01,1.25,26.909,15.435Z" transform="translate(-441.129 -204.725)" fill="#3e2ea6"/>
        <path id="Trazado_86937" data-name="Trazado 86937" d="M474.805,231.859,456.8,221.532l-.01,1.25,18.016,10.333Z" transform="translate(-442.048 -205.707)" fill="#3e2ea6"/>
        <path id="Trazado_86938" data-name="Trazado 86938" d="M474.289,236.592l-23-13.2-.01,1.25,23.015,13.2Z" transform="translate(-441.531 -205.922)" fill="#3e2ea6"/>
        <path id="Trazado_86939" data-name="Trazado 86939" d="M466,235.865l-14.745-8.457.01-1.25,14.745,8.457Z" transform="translate(-441.529 -206.24)" fill="#3e2ea6"/>
        <path id="Trazado_86940" data-name="Trazado 86940" d="M474.1,243.288l-22.871-13.118.01-1.25,22.871,13.118Z" transform="translate(-441.527 -206.557)" fill="#3e2ea6"/>
        <path id="Trazado_86941" data-name="Trazado 86941" d="M454.367,235.252l-8.727-5.005.01-1.25L454.377,234Z" transform="translate(-441.004 -206.566)" fill="#3e2ea6"/>
        <path id="Trazado_86942" data-name="Trazado 86942" d="M474.782,245.84l-18.236-10.46-.01,1.25L474.782,247.1Z" transform="translate(-442.024 -207.301)" fill="#3e2ea6"/>
        <path id="Trazado_86943" data-name="Trazado 86943" d="M473.759,247.893l-28.13-16.135-.01,1.25,28.14,16.141Z" transform="translate(-441.002 -206.884)" fill="#3e2ea6"/>
        <path id="Trazado_86944" data-name="Trazado 86944" d="M466.12,247.541,445.6,235.769l.01-1.25L466.13,246.29Z" transform="translate(-441 -207.202)" fill="#3e2ea6"/>
        <path id="Trazado_86945" data-name="Trazado 86945" d="M476.008,252.29l-6.366-3.652-.01,1.25,6.376,3.657Z" transform="translate(-443.251 -208.827)" fill="#3e2ea6"/>
        <path id="Trazado_86946" data-name="Trazado 86946" d="M440.524,234.306v1.256l8.555,4.907.01-1.25Z" transform="translate(-440.524 -207.177)" fill="#3e2ea6"/>
        <path id="Trazado_86947" data-name="Trazado 86947" d="M440.524,237.08v1.256l22.146,12.7.01-1.25Z" transform="translate(-440.524 -207.496)" fill="#3e2ea6"/>
      </g>
      <g id="Grupo_1026047" data-name="Grupo 1026047" transform="translate(1217.313 306.978)">
        <path id="Trazado_86948" data-name="Trazado 86948" d="M483.553,179.75v1.256l4.746,2.722.01-1.25Z" transform="translate(-483.553 -179.75)" fill="#3e2ea6"/>
        <path id="Trazado_86949" data-name="Trazado 86949" d="M483.553,182.524v1.256l4.727,2.711.01-1.25Z" transform="translate(-483.553 -180.069)" fill="#3e2ea6"/>
        <path id="Trazado_86950" data-name="Trazado 86950" d="M483.553,185.3v1.256l11.793,6.764.01-1.25Z" transform="translate(-483.553 -180.389)" fill="#3e2ea6"/>
        <path id="Trazado_86951" data-name="Trazado 86951" d="M483.553,190.4v1.256l8.622,4.945.01-1.25Z" transform="translate(-483.553 -180.976)" fill="#3e2ea6"/>
        <path id="Trazado_86952" data-name="Trazado 86952" d="M483.553,193.176v1.256l8.6,4.934.01-1.25Z" transform="translate(-483.553 -181.295)" fill="#3e2ea6"/>
        <path id="Trazado_86953" data-name="Trazado 86953" d="M518.955,213.824l-7.162-4.108-.01,1.25,7.172,4.114Z" transform="translate(-486.198 -183.199)" fill="#3e2ea6"/>
        <path id="Trazado_86954" data-name="Trazado 86954" d="M483.553,195.95v1.256l8.583,4.923.01-1.25Z" transform="translate(-483.553 -181.615)" fill="#3e2ea6"/>
        <path id="Trazado_86955" data-name="Trazado 86955" d="M506.559,194.292l-16.533-9.483.01-1.25,16.533,9.483Z" transform="translate(-484.16 -180.189)" fill="#3e2ea6"/>
        <path id="Trazado_86956" data-name="Trazado 86956" d="M518.748,200.274l-9.167-5.258-.01,1.25,9.177,5.264Z" transform="translate(-485.991 -181.507)" fill="#3e2ea6"/>
        <path id="Trazado_86957" data-name="Trazado 86957" d="M516.915,201.75l-26.9-15.429-.01,1.25,26.909,15.435Z" transform="translate(-484.158 -180.506)" fill="#3e2ea6"/>
        <path id="Trazado_86958" data-name="Trazado 86958" d="M517.834,205.187l-18.006-10.328-.01,1.25,18.016,10.333Z" transform="translate(-485.077 -181.489)" fill="#3e2ea6"/>
        <path id="Trazado_86959" data-name="Trazado 86959" d="M517.317,209.919l-23-13.2-.01,1.25,23.015,13.2Z" transform="translate(-484.56 -181.704)" fill="#3e2ea6"/>
        <path id="Trazado_86960" data-name="Trazado 86960" d="M509.026,209.193l-14.745-8.457.01-1.25,14.745,8.457Z" transform="translate(-484.558 -182.021)" fill="#3e2ea6"/>
        <path id="Trazado_86961" data-name="Trazado 86961" d="M517.131,216.615,494.26,203.5l.01-1.25,22.871,13.118Z" transform="translate(-484.556 -182.339)" fill="#3e2ea6"/>
        <path id="Trazado_86962" data-name="Trazado 86962" d="M497.4,208.58l-8.727-5.005.01-1.25,8.727,5.005Z" transform="translate(-484.033 -182.348)" fill="#3e2ea6"/>
        <path id="Trazado_86963" data-name="Trazado 86963" d="M517.81,219.168l-18.236-10.46-.01,1.25,18.246,10.466Z" transform="translate(-485.053 -183.083)" fill="#3e2ea6"/>
        <path id="Trazado_86964" data-name="Trazado 86964" d="M516.788,221.22l-28.13-16.135-.01,1.25,28.14,16.141Z" transform="translate(-484.03 -182.666)" fill="#3e2ea6"/>
        <path id="Trazado_86965" data-name="Trazado 86965" d="M509.149,220.868,488.627,209.1l.01-1.25,20.522,11.771Z" transform="translate(-484.029 -182.984)" fill="#3e2ea6"/>
        <path id="Trazado_86966" data-name="Trazado 86966" d="M519.037,225.617l-6.366-3.651-.01,1.25,6.376,3.657Z" transform="translate(-486.28 -184.609)" fill="#3e2ea6"/>
        <path id="Trazado_86967" data-name="Trazado 86967" d="M483.553,207.634v1.256l8.555,4.907.01-1.25Z" transform="translate(-483.553 -182.959)" fill="#3e2ea6"/>
        <path id="Trazado_86968" data-name="Trazado 86968" d="M483.553,210.407v1.256l22.146,12.7.01-1.25Z" transform="translate(-483.553 -183.278)" fill="#3e2ea6"/>
        <path id="Trazado_86969" data-name="Trazado 86969" d="M518.733,230.912l-9.307-5.338-.01,1.25,9.316,5.344Z" transform="translate(-485.976 -185.024)" fill="#3e2ea6"/>
        <path id="Trazado_86970" data-name="Trazado 86970" d="M483.553,213.181v1.256l16.2,9.293.01-1.25Z" transform="translate(-483.553 -183.597)" fill="#3e2ea6"/>
        <path id="Trazado_86971" data-name="Trazado 86971" d="M483.553,215.955v1.256l19.439,11.15.01-1.25Z" transform="translate(-483.553 -183.917)" fill="#3e2ea6"/>
        <path id="Trazado_86972" data-name="Trazado 86972" d="M510.8,235.872,489.049,223.4l.01-1.25,21.75,12.475Z" transform="translate(-484.068 -184.629)" fill="#3e2ea6"/>
        <path id="Trazado_86973" data-name="Trazado 86973" d="M516.328,241.817l-27.3-15.659.01-1.25,27.3,15.659Z" transform="translate(-484.066 -184.947)" fill="#3e2ea6"/>
      </g>
      <g id="Grupo_1026048" data-name="Grupo 1026048" transform="translate(1217.066 347.045)">
        <path id="Trazado_86974" data-name="Trazado 86974" d="M483.282,225.028v1.256l4.765,2.733.01-1.25Z" transform="translate(-483.282 -225.028)" fill="#3e2ea6"/>
        <path id="Trazado_86975" data-name="Trazado 86975" d="M483.282,227.8v1.256l4.746,2.722.01-1.25Z" transform="translate(-483.282 -225.347)" fill="#3e2ea6"/>
        <path id="Trazado_86976" data-name="Trazado 86976" d="M483.282,230.575v1.256l4.727,2.711.01-1.25Z" transform="translate(-483.282 -225.666)" fill="#3e2ea6"/>
        <path id="Trazado_86977" data-name="Trazado 86977" d="M483.282,233.349V234.6l11.793,6.764.01-1.25Z" transform="translate(-483.282 -225.986)" fill="#3e2ea6"/>
        <path id="Trazado_86978" data-name="Trazado 86978" d="M483.282,240.355v1.256l8.622,4.945.01-1.25Z" transform="translate(-483.282 -226.792)" fill="#3e2ea6"/>
        <path id="Trazado_86979" data-name="Trazado 86979" d="M483.282,243.128v1.256l8.6,4.934.01-1.25Z" transform="translate(-483.282 -227.111)" fill="#3e2ea6"/>
        <path id="Trazado_86980" data-name="Trazado 86980" d="M483.282,245.9v1.256l8.583,4.923.01-1.25Z" transform="translate(-483.282 -227.43)" fill="#3e2ea6"/>
        <path id="Trazado_86981" data-name="Trazado 86981" d="M511.833,242.751,489.776,230.1l.01-1.25L511.843,241.5Z" transform="translate(-483.89 -225.468)" fill="#3e2ea6"/>
        <path id="Trazado_86982" data-name="Trazado 86982" d="M506.288,242.344l-16.533-9.483.01-1.25,16.532,9.483Z" transform="translate(-483.888 -225.785)" fill="#3e2ea6"/>
        <path id="Trazado_86983" data-name="Trazado 86983" d="M518.476,248.325l-9.167-5.258-.01,1.25,9.177,5.264Z" transform="translate(-485.719 -227.104)" fill="#3e2ea6"/>
        <path id="Trazado_86984" data-name="Trazado 86984" d="M516.643,249.8l-26.9-15.429-.01,1.25,26.909,15.435Z" transform="translate(-483.886 -226.103)" fill="#3e2ea6"/>
        <path id="Trazado_86985" data-name="Trazado 86985" d="M517.563,253.238l-18.006-10.328-.01,1.25,18.015,10.333Z" transform="translate(-484.805 -227.086)" fill="#3e2ea6"/>
        <path id="Trazado_86986" data-name="Trazado 86986" d="M517.046,259.871l-23-13.2-.01,1.25,23.015,13.2Z" transform="translate(-484.289 -227.519)" fill="#3e2ea6"/>
        <path id="Trazado_86987" data-name="Trazado 86987" d="M508.754,259.144l-14.745-8.457.01-1.25,14.745,8.457Z" transform="translate(-484.287 -227.837)" fill="#3e2ea6"/>
        <path id="Trazado_86988" data-name="Trazado 86988" d="M516.859,266.567l-22.871-13.118.01-1.25,22.871,13.118Z" transform="translate(-484.285 -228.155)" fill="#3e2ea6"/>
        <path id="Trazado_86989" data-name="Trazado 86989" d="M497.124,258.531l-8.727-5.005.01-1.25,8.727,5.005Z" transform="translate(-483.761 -228.164)" fill="#3e2ea6"/>
        <path id="Trazado_86990" data-name="Trazado 86990" d="M516.516,271.172l-28.13-16.135-.01,1.25,28.14,16.14Z" transform="translate(-483.759 -228.481)" fill="#3e2ea6"/>
        <path id="Trazado_86991" data-name="Trazado 86991" d="M508.877,270.82l-20.522-11.771.01-1.25,20.522,11.771Z" transform="translate(-483.757 -228.799)" fill="#3e2ea6"/>
        <path id="Trazado_86992" data-name="Trazado 86992" d="M483.282,257.585v1.256l8.555,4.907.01-1.25Z" transform="translate(-483.282 -228.775)" fill="#3e2ea6"/>
        <path id="Trazado_86993" data-name="Trazado 86993" d="M483.282,260.359v1.256l22.146,12.7.01-1.25Z" transform="translate(-483.282 -229.094)" fill="#3e2ea6"/>
      </g>
      <g id="Grupo_1026050" data-name="Grupo 1026050" transform="translate(1170.504 204.298)">
        <g id="Grupo_57004" data-name="Grupo 57004" transform="translate(30.927 0)">
          <g id="Grupo_57003" data-name="Grupo 57003" transform="translate(0)">
            <path id="Trazado_123847" data-name="Trazado 123847" d="M445.047,173.644l6.594-3.741a7.093,7.093,0,0,1-.672.33c-.072.031-.146.057-.219.086-.144.057-.292.108-.44.156-.213.069-.432.125-.654.174-.1.022-.191.049-.29.067-.125.023-.254.037-.382.054-.159.021-.316.044-.478.056-.093.007-.188.009-.282.013-.191.008-.384.012-.581.008-.085,0-.169,0-.254-.008-.259-.012-.52-.032-.787-.066l-.046,0c-.286-.037-.577-.091-.871-.153l-.184-.04c-.3-.07-.611-.149-.924-.245h0l-6.594,3.741.158.048q.3.088.591.159c.06.015.118.025.177.039l.182.04c.082.017.165.038.246.053q.31.059.614.1h.012l.048,0c.2.025.4.046.589.059.067,0,.131,0,.2.006.085,0,.17.007.254.008s.159.008.237.008c.117,0,.23-.011.345-.016.093,0,.188-.006.281-.013.038,0,.077,0,.114-.006.125-.011.243-.035.365-.051s.258-.031.382-.054c.028,0,.057-.007.083-.012.072-.014.137-.04.207-.056.223-.05.441-.106.654-.174.046-.015.1-.022.142-.038.1-.035.2-.079.3-.118.072-.029.145-.055.217-.086A7.036,7.036,0,0,0,445.047,173.644Z" transform="translate(-437.979 -157.134)" fill="url(#linear-gradient-6)"/>
            <path id="Trazado_123848" data-name="Trazado 123848" d="M462.037,149.04l-6.594,3.741,20.256,2.627,6.594-3.741Z" transform="translate(-444.496 -149.04)" fill="#f0dcc0"/>
            <path id="Trazado_123849" data-name="Trazado 123849" d="M531.523,231.661c.105-.517.2-1.044.3-1.576.016-.092.036-.181.052-.274l0-.023q.162-.914.307-1.858l-6.593,3.741q-.145.945-.307,1.858c-.018.1-.038.2-.057.3-.1.532-.2,1.058-.3,1.573-.044.217-.091.426-.137.64-.084.392-.167.783-.256,1.167-.05.215-.1.425-.153.637-.1.407-.2.811-.3,1.207q-.087.335-.178.665-.155.569-.317,1.122c-.059.2-.118.4-.178.6-.177.584-.359,1.159-.548,1.719l-.026.083c-.2.586-.406,1.155-.616,1.715q-.162.43-.327.849c-.043.108-.085.219-.129.326q-.247.613-.5,1.205c-.036.084-.074.165-.111.248q-.205.466-.416.92c-.06.129-.121.256-.181.382-.11.231-.221.458-.333.683s-.216.431-.326.643q-.146.284-.295.562-.166.311-.335.614c-.1.181-.2.362-.3.539-.114.2-.229.395-.345.589-.1.173-.206.346-.31.515-.117.192-.236.378-.355.565-.105.165-.211.33-.317.492-.117.177-.235.351-.353.524s-.217.319-.327.476-.24.335-.361.5-.22.3-.331.452-.245.321-.369.48c-.112.144-.223.289-.335.429-.124.155-.249.306-.374.457s-.226.275-.34.409-.253.293-.381.437c-.113.129-.227.259-.341.386-.128.142-.258.28-.387.418-.115.122-.229.246-.343.365-.13.135-.261.265-.392.4-.115.115-.229.232-.344.345-.132.129-.265.253-.4.379-.115.108-.229.219-.344.324-.133.123-.267.241-.4.36-.114.1-.228.206-.343.3-.135.118-.272.23-.408.343-.113.095-.226.192-.338.285-.137.111-.273.217-.409.324-.113.089-.226.181-.339.267-.137.105-.275.206-.412.308-.111.083-.223.168-.334.249-.141.1-.282.2-.422.3-.107.075-.215.152-.322.225-.149.1-.3.2-.447.3-.1.064-.2.131-.293.193-.172.111-.344.215-.514.321-.074.045-.148.093-.221.137-.245.148-.488.291-.732.428l6.594-3.741q.364-.206.731-.428c.073-.044.147-.092.221-.137.171-.105.342-.21.514-.321.1-.062.2-.129.293-.193.149-.1.3-.194.448-.3.107-.073.214-.15.321-.225.141-.1.281-.2.422-.3.112-.08.223-.166.335-.248.137-.1.274-.2.411-.308.113-.087.226-.178.339-.267.136-.108.272-.214.409-.325.113-.092.228-.19.341-.286.135-.113.27-.225.4-.341.115-.1.231-.205.347-.308.132-.119.265-.235.4-.358.115-.106.229-.216.345-.324.132-.125.264-.25.4-.379.115-.113.23-.23.345-.346.13-.131.26-.261.39-.4s.231-.245.346-.368.257-.273.385-.414.229-.258.343-.389.253-.286.378-.434.228-.274.342-.411.249-.3.372-.455.225-.286.336-.431.246-.316.367-.479.222-.3.333-.455.24-.33.359-.5.219-.318.328-.478.235-.345.351-.521c.037-.056.075-.11.112-.166.069-.107.137-.219.206-.327.118-.187.237-.373.355-.564.1-.17.207-.342.31-.515.116-.194.231-.389.345-.588.1-.178.2-.359.3-.541q.168-.3.334-.613.149-.279.3-.564c.11-.212.218-.425.325-.641.047-.095.1-.185.142-.28.065-.133.128-.271.192-.405s.12-.252.18-.38c.141-.3.279-.609.416-.92.036-.084.075-.165.111-.25q.257-.59.5-1.2c.044-.108.086-.219.129-.328.088-.222.176-.441.262-.668.023-.058.042-.121.065-.18.21-.56.417-1.129.615-1.715.009-.027.018-.056.027-.083.188-.559.37-1.134.547-1.718.022-.073.047-.142.069-.216.038-.127.072-.26.11-.388q.162-.555.317-1.125c.06-.219.119-.439.178-.661.1-.4.2-.8.3-1.211.036-.149.075-.293.11-.443.014-.062.028-.129.042-.192.088-.384.172-.775.256-1.168C531.432,232.086,531.479,231.877,531.523,231.661Z" transform="translate(-463.356 -179.648)" fill="url(#linear-gradient-6)"/>
            <path id="Trazado_123850" data-name="Trazado 123850" d="M536.092,210.817l-.128-.117q-.52-.482-1.021-1l-.137-.14q-.492-.511-.965-1.052l-.135-.154q-.459-.531-.9-1.086l-.191-.244c-.21-.271-.413-.548-.615-.826-.129-.176-.258-.351-.383-.531s-.234-.348-.352-.523q-.388-.576-.753-1.17c-.135-.22-.27-.439-.4-.662-.1-.172-.2-.345-.3-.519-.223-.4-.443-.8-.649-1.2l0-.007q-.367-.72-.7-1.452l-.033-.075q-.308-.69-.582-1.389l-.056-.146q-.259-.671-.483-1.345l-.058-.174q-.217-.666-.4-1.334c-.017-.061-.033-.122-.049-.184q-.177-.665-.317-1.329c-.012-.059-.024-.117-.036-.175q-.135-.667-.232-1.328l-.022-.154q-.093-.675-.144-1.339c0-.039-.007-.077-.01-.116-.033-.474-.051-.945-.05-1.41,0-.271.01-.537.023-.8,0-.077.009-.153.015-.23q.018-.279.045-.552c.009-.087.018-.174.028-.26.021-.177.046-.351.072-.525.012-.081.023-.163.037-.243.043-.248.09-.491.144-.73l-6.594,3.741c-.049.215-.093.433-.133.655,0,.024-.007.05-.011.075-.014.08-.024.162-.037.243-.019.121-.04.239-.055.362-.007.053-.011.109-.017.163-.011.086-.019.173-.028.261s-.019.158-.026.24c-.008.1-.013.208-.019.312,0,.076-.011.151-.014.228,0,.039-.006.075-.007.114q-.014.32-.016.649v.038q0,.313.009.63.011.336.032.676c0,.034.006.069.009.1s.006.077.009.116c.011.153.023.306.038.46.022.229.048.459.078.69.008.063.019.126.028.189s.015.1.022.154c.017.119.033.237.052.356q.057.358.127.717c.016.085.036.17.053.255.012.058.024.116.036.175.021.1.039.2.061.3q.084.372.178.744c.024.1.052.192.077.287.016.062.033.123.05.185.025.091.048.183.073.275.071.249.146.5.224.748.033.1.068.207.1.31.019.058.038.116.057.174.027.082.052.164.081.245q.124.361.257.721c.047.126.1.252.146.378.019.049.037.1.056.147s.043.113.065.169q.136.342.282.684c.075.178.154.356.234.534.012.026.023.052.035.078s.017.041.027.062q.158.349.325.7t.342.69l.005.01,0,0q.221.433.455.862c.061.112.128.222.191.333.1.174.2.346.3.519.071.123.139.248.212.371.059.1.127.193.187.291q.365.594.754,1.171c.073.11.139.223.214.332.044.064.092.126.136.189.126.18.256.356.385.533s.235.332.357.494c.085.112.172.22.258.33l.19.244c.06.076.118.154.179.229q.279.346.566.683l.153.174.135.154c.087.1.173.2.262.3q.279.311.566.612c.045.048.091.094.137.141l.138.141c.1.106.205.212.309.316q.3.3.615.594l.095.086c.043.04.087.078.13.117.135.124.27.25.408.37q.32.281.645.55l.052.043,6.594-3.741C536.824,211.473,536.456,211.149,536.092,210.817Z" transform="translate(-468.366 -163.497)" fill="url(#linear-gradient-6)"/>
            <path id="Trazado_123851" data-name="Trazado 123851" d="M487.759,157.074l6.594-3.741,20.2,20.179-6.594,3.741Z" transform="translate(-456.555 -150.705)" fill="url(#linear-gradient-6)"/>
          </g>
          <path id="Trazado_123852" data-name="Trazado 123852" d="M469.183,157.78l20.2,20.178a15.114,15.114,0,0,0-.363,3.339c-.023,7.65,4.741,16.847,11.2,22.138-5.092,33.215-26.494,36.907-31.277,37.318A138.233,138.233,0,0,1,455.553,220.8a147.111,147.111,0,0,1-17.574-52.447c6.466,1.993,11.268-1.812,11.29-9.462a21.134,21.134,0,0,0-.342-3.736Z" transform="translate(-437.979 -151.411)" fill="#4adbd1"/>
          <path id="Trazado_123853" data-name="Trazado 123853" d="M470.28,239.227a138.18,138.18,0,0,1-11.592-17.6,143.091,143.091,0,0,1-16.623-48.149c6.548.9,10.951-3.725,10.974-11.554,0-.592-.024-1.208-.073-1.827l17.542,2.274,17.5,17.478c-.053.563-.081,1.148-.083,1.74-.023,7.828,4.339,17.392,10.87,23.868-5.12,28.086-22.955,32.939-28.513,33.768m.229-77.384-18.015-2.336.015.2c.06.67.089,1.332.087,1.971-.022,7.693-4.387,12.2-10.855,11.228l-.175-.024.03.222a143.982,143.982,0,0,0,16.766,48.683,138.391,138.391,0,0,0,11.8,17.875l.116.149.12-.015c5.469-.779,23.718-5.555,28.863-34.185l.035-.185-.174-.172c-6.458-6.312-10.781-15.719-10.759-23.412a18.218,18.218,0,0,1,.1-1.867l.016-.183-17.888-17.868-.082-.081" transform="translate(-439.318 -153.1)" fill="#00223d"/>
        </g>
        <g id="Grupo_57006" data-name="Grupo 57006" transform="translate(39.984 17.464)">
          <path id="Trazado_123854" data-name="Trazado 123854" d="M488.777,218.074q0-.057-.006-.114c0-.038-.006-.076-.009-.114s-.008-.077-.013-.115-.011-.079-.017-.118v-.006c-.006-.037-.013-.075-.02-.113s-.016-.082-.025-.123-.02-.082-.029-.123-.022-.083-.034-.125-.019-.065-.029-.1l0-.007-.006-.02c-.013-.04-.026-.081-.04-.122s-.028-.08-.043-.119-.029-.077-.045-.116-.031-.076-.047-.114l-.038-.087,0-.007-.008-.018-.053-.114c-.02-.042-.04-.083-.061-.124s-.049-.094-.075-.141-.057-.1-.086-.149l-.015-.026-.018-.031q-.086-.141-.179-.278c-.05-.072-.1-.143-.153-.212h0c-.034-.047-.07-.092-.106-.137l-.093-.113-.093-.106-.093-.1-.019-.019-.008-.007c-.024-.025-.048-.05-.072-.074l-.1-.1-.106-.1-.107-.091-.055-.043-.012-.009-.041-.032c-.035-.028-.07-.053-.106-.079s-.07-.049-.1-.073l-.1-.066-.1-.061-.024-.013-24.431-13.772-.077-.042-.1-.05-.1-.045c-.033-.014-.065-.028-.1-.04l-.1-.036-.019-.005-.006,0-.072-.023c-.033-.01-.066-.019-.1-.027l-.1-.021-.105-.017-.071-.007H461l-.026,0c-.038,0-.076,0-.113,0s-.085,0-.125.006-.093.011-.139.02h-.007a1.368,1.368,0,0,0-.161.043,1.184,1.184,0,0,0-.2.088l-6.594,3.741a1.208,1.208,0,0,1,.356-.132h0a1.435,1.435,0,0,1,.407-.02h.011a2.017,2.017,0,0,1,.446.095l.008,0a2.856,2.856,0,0,1,.487.219l24.431,13.772a3.711,3.711,0,0,1,.48.324l.012.01a4.638,4.638,0,0,1,.441.4l.008.008a5.521,5.521,0,0,1,.754,1l.015.025a5.755,5.755,0,0,1,.283.547l0,.008a5.147,5.147,0,0,1,.218.576l0,.009a4.378,4.378,0,0,1,.137.581v0a3.5,3.5,0,0,1,.047.571l-.054,18.594a2.612,2.612,0,0,1-.049.507l0,.014a1.842,1.842,0,0,1-.137.415l0,.007a1.382,1.382,0,0,1-.181.274c-.022.027-.043.056-.067.081a1.172,1.172,0,0,1-.263.211h0l6.594-3.741a1.187,1.187,0,0,0,.263-.212c.024-.025.045-.054.067-.081a1.354,1.354,0,0,0,.087-.105,1.465,1.465,0,0,0,.091-.161l0-.007,0-.007c.018-.039.036-.078.051-.119s.03-.081.042-.124.023-.079.032-.12c0-.017.007-.034.011-.051l0-.014c0-.017.007-.032.01-.05.006-.037.012-.074.017-.113s.009-.075.013-.113,0-.073.007-.111,0-.075,0-.114v-.007l.054-18.594C488.778,218.145,488.778,218.109,488.777,218.074Z" transform="translate(-452.878 -186.285)" opacity="0.631" fill="url(#linear-gradient)"/>
          <path id="Trazado_123855" data-name="Trazado 123855" d="M479.333,220.233a5.143,5.143,0,0,1,2.4,4.06l-.054,18.594c0,1.493-1.086,2.094-2.416,1.345l-24.431-13.772a5.145,5.145,0,0,1-2.4-4.063l.054-18.594c0-1.492,1.086-2.094,2.421-1.342Z" transform="translate(-452.428 -188.656)" fill="#00223d"/>
          <path id="Trazado_123856" data-name="Trazado 123856" d="M473.137,225.036a6.918,6.918,0,0,1,3.228,5.454A2.067,2.067,0,0,1,475.2,232.6l-.017,5.7c0,1.288-.937,1.807-2.089,1.158a4.438,4.438,0,0,1-2.072-3.5l.016-5.7a6.454,6.454,0,0,1-1.148-3.414C469.9,224.84,471.352,224.031,473.137,225.036Z" transform="translate(-458.945 -195.821)" fill="#21587b"/>
          <g id="Grupo_57005" data-name="Grupo 57005" transform="translate(5.989)">
            <path id="Trazado_123857" data-name="Trazado 123857" d="M470.525,188.721c.006-.026.011-.053.016-.079a5.713,5.713,0,0,1,.147-.554c.011-.033.022-.065.033-.1a4.833,4.833,0,0,1,.192-.48c.007-.015.013-.032.02-.047a4.211,4.211,0,0,1,.275-.486c.014-.021.031-.04.046-.062a3.544,3.544,0,0,1,.262-.338c.034-.039.07-.077.105-.113a3.251,3.251,0,0,1,.257-.242c.037-.032.073-.064.111-.094a3.281,3.281,0,0,1,.4-.269l-2.836,1.61a3.216,3.216,0,0,0-.4.269c-.038.03-.074.062-.111.094a3.5,3.5,0,0,0-.256.242c-.036.037-.071.074-.105.113a3.653,3.653,0,0,0-.263.338c-.014.021-.031.04-.045.062l-.011.015a4.078,4.078,0,0,0-.258.457l-.006.014c-.007.015-.014.032-.021.048-.048.1-.1.207-.137.316-.02.053-.036.109-.055.163-.011.032-.023.065-.033.1s-.021.059-.031.091c-.033.11-.063.224-.091.34-.009.04-.016.083-.025.123s-.011.053-.016.08c-.008.042-.018.081-.026.124-.018.1-.035.21-.048.318-.008.059-.013.12-.02.18,0,.021-.005.042-.007.064s-.006.051-.008.077c-.008.1-.015.207-.019.313s-.007.212-.008.321v.02l-.023,7.861a2.006,2.006,0,0,1-.038.386l0,.011a1.411,1.411,0,0,1-.1.316l0,.005a1.1,1.1,0,0,1-.138.209c-.017.02-.033.042-.051.061a.9.9,0,0,1-.2.162l2.836-1.609a.893.893,0,0,0,.2-.162c.018-.019.034-.041.051-.062a.949.949,0,0,0,.066-.08,1.046,1.046,0,0,0,.069-.122l0-.006,0,0c.014-.029.027-.059.039-.091s.022-.062.032-.094.017-.061.024-.092c0-.013.006-.026.008-.04l0-.01c0-.013.006-.025.008-.038s.009-.056.013-.086.006-.057.009-.086,0-.056.006-.085,0-.058,0-.087V198l.023-7.861c0-.253.013-.5.036-.731,0-.021,0-.042.006-.064Q470.466,189.02,470.525,188.721Z" transform="translate(-463.853 -180.789)" fill="#00223d"/>
            <path id="Trazado_123858" data-name="Trazado 123858" d="M487.709,196.246q-.008-.246-.024-.5c0-.076-.013-.153-.019-.23,0-.032-.005-.065-.008-.1,0-.057-.008-.114-.014-.171q-.024-.25-.057-.5t-.075-.515l0-.02,0-.023c-.026-.158-.053-.316-.084-.476-.034-.177-.071-.356-.111-.535-.015-.065-.032-.13-.047-.2-.009-.038-.017-.075-.027-.113-.018-.077-.035-.152-.055-.229-.046-.181-.095-.363-.147-.544-.038-.135-.08-.271-.122-.406-.007-.024-.014-.048-.021-.072l-.019-.065c-.055-.177-.113-.354-.174-.531s-.122-.349-.187-.524c-.012-.034-.026-.067-.039-.1s-.021-.054-.031-.082c-.041-.106-.081-.213-.123-.319-.066-.167-.135-.334-.205-.5-.052-.122-.107-.244-.161-.365l-.026-.06-.03-.066c-.075-.166-.152-.332-.232-.5-.087-.182-.177-.363-.269-.543-.014-.028-.03-.056-.044-.084l-.056-.106c-.075-.143-.149-.286-.226-.427-.1-.179-.2-.354-.3-.53-.051-.089-.1-.179-.153-.267-.021-.035-.04-.071-.061-.106-.091-.152-.194-.3-.288-.449-.14-.222-.278-.444-.426-.662-.023-.034-.044-.07-.067-.1-.21-.307-.428-.608-.65-.9l-.017-.024,0,0q-.231-.3-.469-.6-.189-.234-.383-.462l-.014-.016-.009-.01q-.2-.235-.406-.464t-.409-.442l-.064-.066-.07-.072c-.1-.1-.2-.2-.3-.3q-.22-.219-.443-.428c-.045-.042-.09-.081-.135-.122l-.1-.095c-.075-.067-.149-.136-.223-.2q-.231-.2-.467-.4c-.067-.055-.135-.108-.2-.162l-.106-.084c-.053-.042-.105-.085-.159-.126q-.228-.176-.46-.343c-.11-.08-.222-.155-.333-.231l-.063-.044-.06-.041q-.221-.149-.445-.287t-.443-.265l-.1-.059q-.167-.094-.333-.182l-.127-.065-.171-.086-.132-.067c-.071-.034-.142-.065-.212-.1l-.152-.07-.06-.028q-.21-.092-.419-.174h0l-.021-.007q-.2-.079-.4-.148l-.057-.018-.154-.049c-.069-.022-.14-.047-.209-.067l-.108-.029-.187-.05c-.046-.012-.094-.026-.139-.037s-.1-.021-.151-.033l-.185-.04-.095-.021c-.059-.011-.117-.018-.176-.028s-.142-.024-.212-.034l-.073-.012c-.06-.008-.119-.012-.177-.018-.076-.008-.152-.017-.227-.023l-.064-.006c-.052,0-.1,0-.152,0-.09,0-.181-.008-.27-.009l-.073,0c-.039,0-.076,0-.115,0-.112,0-.222.007-.332.016-.033,0-.066,0-.1,0s-.048.008-.073.01c-.165.017-.328.039-.488.069l-.046.007-.009,0a5.469,5.469,0,0,0-.668.18c-.019.006-.04.009-.06.016l-.046.018c-.095.034-.188.072-.28.111-.045.018-.09.035-.134.055-.135.062-.266.128-.394.2l-2.836,1.609c.128-.073.259-.139.394-.2.044-.02.09-.037.134-.056.092-.039.184-.077.279-.111l.107-.034a5.427,5.427,0,0,1,.668-.179l.054-.009c.16-.03.323-.052.489-.069l.171-.015c.11-.008.221-.013.332-.015.063,0,.125,0,.188,0,.088,0,.178,0,.268.009.073,0,.145.005.218.012s.15.014.225.022.167.018.251.029l.212.034c.09.015.179.031.27.049.061.012.123.026.185.04.1.021.193.045.29.07l.187.05c.105.03.212.062.318.1.051.016.1.031.154.049q.229.076.459.166l.019.007c.159.062.32.131.482.2l.15.069q.173.079.347.165c.056.028.112.056.169.086.153.078.306.159.461.246.354.2.7.419,1.05.652l.063.043c.322.22.639.454.952.7l.105.084q.454.364.894.763l.1.094q.446.41.874.853l.069.071q.455.476.889.983l.014.017q.439.519.854,1.066l.02.028c.246.327.484.664.715,1,.147.217.285.44.426.662.117.184.237.367.349.554.053.089.1.179.155.269.183.316.362.634.53.957l.056.105c.2.393.395.791.574,1.191l.026.059q.262.589.49,1.186c.011.027.021.053.031.08q.23.61.421,1.223c.008.023.014.047.021.069q.181.59.323,1.181c.009.038.018.075.027.113.095.4.176.807.242,1.206l0,.024c.066.4.115.807.149,1.206,0,.032.006.065.008.1.032.4.05.8.049,1.186l-.023,7.861a2.013,2.013,0,0,1-.037.386l0,.011a1.41,1.41,0,0,1-.1.317l0,0a1.06,1.06,0,0,1-.139.209c-.017.021-.033.042-.051.061a.893.893,0,0,1-.2.162l2.836-1.61a.9.9,0,0,0,.2-.162c.019-.019.034-.04.051-.061a1.016,1.016,0,0,0,.066-.08,1.159,1.159,0,0,0,.07-.123l0-.005,0-.006c.014-.029.027-.059.039-.091a.971.971,0,0,0,.032-.094c.009-.03.018-.06.024-.092,0-.013.006-.026.008-.039l0-.011c0-.013.006-.024.008-.037.005-.028.009-.057.013-.086s.007-.058.009-.087,0-.056.005-.084,0-.058,0-.087v0l.023-7.861C487.716,196.555,487.714,196.4,487.709,196.246Z" transform="translate(-463.824 -177.575)" fill="#00223d"/>
            <path id="Trazado_123859" data-name="Trazado 123859" d="M472.556,181.609c5.8,3.269,10.5,11.218,10.482,17.728l-.023,7.861c0,1.139-.828,1.6-1.844,1.026a3.924,3.924,0,0,1-1.835-3.1l.023-7.861a14.624,14.624,0,0,0-6.817-11.527c-3.771-2.126-6.848-.414-6.861,3.818l-.023,7.861c0,1.139-.828,1.6-1.844,1.025a3.921,3.921,0,0,1-1.835-3.1l.023-7.86C462.024,180.97,466.757,178.34,472.556,181.609Z" transform="translate(-461.982 -178.595)" fill="url(#linear-gradient-11)"/>
          </g>
        </g>
        <g id="Grupo_57011" data-name="Grupo 57011" transform="translate(0 48.469)">
          <path id="Trazado_123860" data-name="Trazado 123860" d="M459.15,229.73a.911.911,0,0,1,.183-.039l.016,0a.708.708,0,0,1,.178.009l.009,0a.555.555,0,0,1,.159.059l-2.56-1.452-.006,0a.468.468,0,0,0-.056-.027.521.521,0,0,0-.059-.02l-.038-.009-.009,0-.014,0c-.022,0-.045-.006-.067-.008s-.049,0-.074,0l-.023,0-.016,0c-.014,0-.029,0-.044,0-.032,0-.065.012-.1.02l-.041.014-.039.013c-.018.006-.035.01-.052.017a1.414,1.414,0,0,0-.156.076l-29.43,16.59,2.56,1.452,29.43-16.59a1.289,1.289,0,0,1,.208-.094Z" transform="translate(-402.922 -228.234)" fill="#00223d"/>
          <path id="Trazado_123861" data-name="Trazado 123861" d="M415.345,265.907c-.007-2.31-.846-3.938-2.2-4.7l-2.56-1.452c1.351.766,2.189,2.393,2.2,4.7,0,.266-.012.537-.033.809-.007.086-.018.173-.026.26q-.027.261-.065.525c-.028.194-.065.389-.1.584-.026.133-.05.267-.08.4s-.062.25-.095.376c-.045.174-.091.349-.143.523-.03.1-.063.2-.095.3q-.1.294-.2.587c-.029.081-.058.162-.09.243-.1.27-.213.539-.332.806l-.044.094c-.108.239-.223.475-.342.709l-.115.222q-.175.333-.365.658c-.025.043-.049.087-.074.13-.152.255-.31.506-.474.753-.048.071-.1.141-.146.211q-.181.266-.373.525c-.069.094-.139.186-.21.278-.11.144-.224.285-.339.424-.1.117-.193.233-.292.347s-.192.214-.289.32q-.244.266-.5.518c-.105.1-.21.21-.318.31-.083.078-.168.155-.253.23-.14.125-.281.245-.424.362-.085.07-.17.14-.256.207-.156.121-.313.235-.472.347-.075.053-.15.11-.226.16-.236.158-.474.308-.715.444s-.461.244-.688.349l-.176.078c-.219.095-.436.182-.649.253l-.043.013c-.185.06-.365.106-.545.148-.1.024-.2.045-.306.064-.135.025-.269.045-.4.06-.075.008-.15.017-.224.022-.166.011-.329.014-.488.009-.035,0-.07,0-.1,0a4.319,4.319,0,0,1-.556-.069c-.045-.009-.09-.02-.134-.031a3.743,3.743,0,0,1-.412-.116c-.043-.015-.085-.027-.127-.043a3.661,3.661,0,0,1-.494-.23l2.56,1.453.041.023a3.592,3.592,0,0,0,.379.181c.024.01.049.016.073.025.042.016.084.029.127.043.066.023.13.049.2.069s.143.032.215.048c.044.01.088.021.134.03.025,0,.048.012.074.017a4.166,4.166,0,0,0,.454.052h.028c.034,0,.07,0,.1,0,.121,0,.242.008.367,0,.04,0,.082-.009.122-.012.074,0,.149-.013.224-.022s.141-.01.214-.021.124-.028.186-.039c.1-.019.2-.04.306-.064.057-.013.112-.02.169-.035.124-.033.25-.072.376-.113l.043-.013c.154-.051.308-.108.465-.171.06-.025.122-.056.183-.082s.117-.051.177-.078c.227-.1.456-.218.688-.349s.48-.285.715-.443c.076-.051.151-.108.227-.161.159-.112.317-.227.471-.347.086-.067.171-.137.257-.207q.214-.175.424-.362c.085-.075.169-.152.253-.23.052-.048.1-.092.155-.141s.108-.114.163-.169q.254-.253.5-.519c.051-.057.107-.108.158-.165s.086-.1.13-.154c.1-.114.2-.231.292-.348.062-.076.127-.147.188-.224s.1-.133.151-.2c.072-.092.141-.185.21-.279.046-.062.1-.122.141-.186.08-.111.155-.226.232-.339.048-.071.1-.14.146-.212.019-.029.039-.056.058-.085q.2-.308.39-.623c.009-.014.016-.029.025-.044.026-.044.05-.089.076-.133.086-.147.172-.294.253-.443.039-.07.073-.142.11-.212s.078-.148.116-.223.067-.127.1-.191c.085-.171.164-.345.243-.518.014-.032.03-.062.044-.094l.013-.026q.146-.329.276-.66c.016-.04.029-.08.044-.119.031-.081.059-.161.09-.242.04-.111.084-.221.122-.332.029-.084.053-.169.08-.254.033-.1.065-.2.1-.3.019-.064.041-.127.059-.19.031-.111.055-.221.083-.332s.066-.251.095-.376c.01-.044.023-.089.033-.133.02-.09.03-.179.047-.269.038-.2.074-.39.1-.583.008-.055.021-.11.029-.163.016-.122.024-.242.036-.363.009-.086.019-.173.026-.258C415.333,266.444,415.346,266.174,415.345,265.907Z" transform="translate(-392.861 -240.462)" fill="#00223d"/>
          <path id="Trazado_123862" data-name="Trazado 123862" d="M412.243,251.1c.049.026.1.048.148.076l-2.56-1.452-.068-.038c-.026-.014-.054-.024-.08-.039q-.225-.119-.46-.219c-.029-.013-.056-.029-.085-.041s-.048-.015-.072-.024c-.186-.073-.374-.141-.569-.2l-.016,0h0c-.2-.057-.41-.1-.62-.14-.025,0-.048-.012-.073-.017s-.066-.006-.1-.011q-.276-.043-.562-.064c-.03,0-.058-.009-.088-.01H407c-.234-.014-.473-.015-.716-.006-.024,0-.046,0-.07,0s-.063.007-.095.009c-.272.015-.548.038-.83.081h0c-.183.027-.369.061-.555.1-.06.012-.12.029-.181.043-.117.026-.234.051-.352.083l-.034.01c-.22.059-.442.125-.666.2-.042.014-.085.031-.127.046-.183.064-.367.131-.552.2-.023.01-.046.017-.069.026-.044.018-.089.041-.133.059q-.3.124-.6.266c-.074.035-.148.07-.223.107-.261.128-.523.264-.788.413-.4.225-.792.472-1.182.733-.126.084-.249.177-.375.266-.262.184-.522.373-.779.573-.142.111-.282.227-.423.342q-.355.291-.7.6c-.14.126-.28.252-.419.381-.085.08-.173.153-.257.234q-.349.336-.688.689h0q-.339.353-.666.72c-.073.081-.141.17-.213.253-.164.188-.323.381-.483.575-.1.125-.211.244-.312.371-.085.107-.164.219-.247.327q-.176.228-.347.46c-.077.1-.159.2-.234.31-.131.182-.254.37-.38.554-.08.117-.163.233-.241.352-.032.048-.067.095-.1.143q-.332.507-.643,1.028c-.014.023-.026.047-.04.07-.043.072-.081.145-.123.217-.142.245-.286.489-.421.737-.063.115-.12.233-.181.35s-.127.243-.19.365-.112.212-.165.319c-.139.281-.27.566-.4.85-.025.054-.051.106-.075.16l-.021.045q-.241.543-.456,1.089c-.026.065-.047.132-.072.2-.051.133-.1.266-.146.4-.068.184-.14.366-.2.551-.048.14-.087.28-.132.421-.054.167-.107.333-.156.5-.031.105-.069.21-.1.315-.052.184-.091.366-.138.549-.054.207-.109.414-.156.621-.017.073-.039.147-.055.22-.074.339-.136.676-.192,1.012-.012.07-.021.138-.033.208-.024.152-.05.305-.07.457-.027.2-.04.4-.061.6-.014.143-.032.285-.043.426-.034.45-.056.9-.055,1.337.011,3.813,1.4,6.5,3.625,7.765l2.56,1.453c-2.23-1.265-3.614-3.952-3.625-7.766,0-.44.021-.887.055-1.337.011-.141.029-.285.043-.427.036-.351.076-.7.132-1.057.011-.069.02-.137.031-.206.068-.409.154-.821.248-1.233.047-.206.1-.413.156-.62.074-.288.15-.575.236-.863.05-.168.1-.335.157-.5.1-.324.215-.647.333-.969.049-.133.1-.266.147-.4.172-.445.353-.889.549-1.33.024-.054.052-.108.076-.163.177-.391.366-.78.562-1.165.062-.122.126-.245.19-.366q.29-.55.6-1.088c.042-.072.081-.144.123-.215.249-.42.512-.834.782-1.242.078-.119.16-.234.241-.351q.3-.439.615-.865.171-.232.347-.46c.182-.237.37-.468.558-.7.16-.194.32-.387.484-.576.288-.331.578-.66.879-.973h0c.308-.321.626-.624.946-.924q.207-.194.418-.381.346-.308.7-.6c.141-.116.281-.231.424-.343.256-.2.517-.388.779-.573.125-.088.249-.181.375-.266.389-.261.783-.508,1.182-.733.264-.149.527-.285.788-.413.075-.037.149-.072.223-.107q.3-.142.6-.266c.068-.028.135-.058.2-.084.185-.074.368-.141.55-.2.043-.015.087-.033.13-.047q.336-.112.666-.2c.13-.035.258-.064.386-.094.06-.013.121-.03.181-.043q.282-.059.558-.1c.282-.042.558-.066.83-.081.055,0,.11-.007.165-.009.242-.008.481-.007.715.006.04,0,.079.007.118.01q.286.021.562.064l.172.028c.211.039.419.083.621.14l.019.006c.2.056.384.122.569.2.053.021.1.043.157.065Q412.018,250.978,412.243,251.1Z" transform="translate(-388.64 -236.254)" fill="#00223d"/>
          <path id="Trazado_123863" data-name="Trazado 123863" d="M446.144,230.758c.757-.427,1.3.1,1.068,1.037l-1.393,5.689a2.423,2.423,0,0,1-1.061,1.465l-8.354,4.71a2.386,2.386,0,0,0-1.113,1.883,2.386,2.386,0,0,1-1.113,1.883l-17.434,9.828c-1.765,6.243-6.281,12.528-11.567,15.507-6.846,3.859-12.43.748-12.452-6.928S398.25,248.77,405.1,244.91c5.286-2.98,9.824-1.8,11.619,2.438Zm-40.985,36.51c4.143-2.335,7.5-8.021,7.489-12.668s-3.4-6.533-7.538-4.2-7.506,8.023-7.492,12.671,3.395,6.533,7.541,4.2" transform="translate(-390.164 -229.155)" fill="#b2ebf2"/>
          <g id="Grupo_57010" data-name="Grupo 57010" transform="translate(30.64 4.602)">
            <g id="Grupo_57009" data-name="Grupo 57009" style="isolation: isolate">
              <g id="Grupo_57008" data-name="Grupo 57008">
                <path id="Trazado_123864" data-name="Trazado 123864" d="M441.721,249.491c-.539.3-.982.061-.984-.548a2.1,2.1,0,0,1,.978-1.654c.543-.306.987-.064.989.546a2.1,2.1,0,0,1-.982,1.656m2.955-1.666c-.543.306-.982.061-.984-.548a2.091,2.091,0,0,1,.978-1.654c.539-.3.983-.061.985.548a2.1,2.1,0,0,1-.979,1.654m2.952-1.664c-.543.306-.983.062-.985-.548a2.093,2.093,0,0,1,.978-1.654c.543-.307.983-.062.984.548a2.091,2.091,0,0,1-.978,1.654m2.952-1.663c-.543.306-.983.061-.985-.548a2.091,2.091,0,0,1,.979-1.654c.543-.306.982-.061.984.548a2.093,2.093,0,0,1-.978,1.654m2.951-1.664c-.543.306-.982.062-.984-.548a2.091,2.091,0,0,1,.978-1.654c.543-.307.983-.062.985.547a2.091,2.091,0,0,1-.978,1.654m2.952-1.664c-.539.3-.983.062-.984-.547a2.1,2.1,0,0,1,.978-1.654c.543-.306.983-.062.985.548a2.094,2.094,0,0,1-.979,1.654m3.477-5.32L438.228,248.1a1.516,1.516,0,0,0-.707,1.192l.008,2.92c0,.439.32.617.712.4l21.732-12.25a1.51,1.51,0,0,0,.7-1.194l-.009-2.92c0-.435-.317-.615-.708-.394" transform="translate(-437.521 -235.754)" fill="#00223d"/>
                <g id="Grupo_57007" data-name="Grupo 57007" transform="translate(3.216 3.082)">
                  <path id="Trazado_123865" data-name="Trazado 123865" d="M443.629,254.517a2.1,2.1,0,0,0-.978,1.654c0,.609.445.851.984.548a2.1,2.1,0,0,0,.982-1.656c0-.61-.446-.852-.988-.546" transform="translate(-442.651 -246.064)" fill="#37a3a5"/>
                  <path id="Trazado_123866" data-name="Trazado 123866" d="M448.344,251.8a2.091,2.091,0,0,0-.978,1.654c0,.609.441.854.984.548a2.1,2.1,0,0,0,.978-1.654c0-.609-.446-.851-.985-.548" transform="translate(-444.411 -245.009)" fill="#37a3a5"/>
                  <path id="Trazado_123867" data-name="Trazado 123867" d="M453.053,249.077a2.093,2.093,0,0,0-.978,1.654c0,.61.442.854.985.548a2.091,2.091,0,0,0,.978-1.654c0-.61-.441-.854-.984-.548" transform="translate(-446.168 -243.954)" fill="#37a3a5"/>
                  <path id="Trazado_123868" data-name="Trazado 123868" d="M457.762,246.358a2.091,2.091,0,0,0-.978,1.654c0,.609.441.854.985.548a2.093,2.093,0,0,0,.978-1.654c0-.609-.441-.854-.984-.548" transform="translate(-447.925 -242.899)" fill="#37a3a5"/>
                  <path id="Trazado_123869" data-name="Trazado 123869" d="M462.47,243.64a2.092,2.092,0,0,0-.978,1.654c0,.609.441.854.984.548a2.091,2.091,0,0,0,.979-1.654c0-.609-.441-.854-.985-.547" transform="translate(-449.682 -241.844)" fill="#37a3a5"/>
                  <path id="Trazado_123870" data-name="Trazado 123870" d="M467.179,240.921a2.1,2.1,0,0,0-.978,1.654c0,.609.445.851.984.547a2.094,2.094,0,0,0,.979-1.654c0-.61-.442-.854-.985-.548" transform="translate(-451.439 -240.789)" fill="#37a3a5"/>
                </g>
              </g>
            </g>
          </g>
        </g>
      </g>
    </g>
    <g id="Grupo_1025535" data-name="Grupo 1025535" transform="translate(866.144 56.722)">
      <path id="Trazado_658701" data-name="Trazado 658701" d="M197.6,95.41l-14.986-8.651-3.077,7.106a1.254,1.254,0,0,1-1.23.754,1.238,1.238,0,0,1-1.126-.9l-3.577-12.164-11.784-6.8a6.313,6.313,0,0,1-2.894-5.013V28.77a2.128,2.128,0,0,1,3.435-1.984l35.78,20.657a6.312,6.312,0,0,1,2.894,5.013V93.427A2.355,2.355,0,0,1,200,95.595a1.893,1.893,0,0,1-.953.249,2.922,2.922,0,0,1-1.444-.433m-35.78-67.688a1.079,1.079,0,0,0-1.812,1.047V69.74a5.292,5.292,0,0,0,2.353,4.076l12.16,7.02,3.7,12.579a.162.162,0,0,0,.155.124.155.155,0,0,0,.171-.1l3.559-8.219,16.038,9.258a1.079,1.079,0,0,0,1.812-1.047V52.456A5.29,5.29,0,0,0,197.6,48.38Z" transform="translate(-105.355 4.578)" fill="#fff"/>
      <path id="Trazado_658702" data-name="Trazado 658702" d="M177.846,43.351c-2.477-1.43-4.758-1.67-6.619-.939l6.619,15.966Z" transform="translate(-103.219 7.298)" fill="#455a64"/>
      <path id="Trazado_658703" data-name="Trazado 658703" d="M183.483,49.856a20.539,20.539,0,0,0-6.617-6.7V58.18Z" transform="translate(-102.239 7.496)" fill="#27debf"/>
      <path id="Trazado_658704" data-name="Trazado 658704" d="M187.582,58.733a30.071,30.071,0,0,0-4.1-9.869l-6.617,8.324Z" transform="translate(-102.239 8.489)" fill="#27debf"/>
      <path id="Trazado_658705" data-name="Trazado 658705" d="M171.834,42.353c-1.9.748-3.356,2.519-4.1,5.136l10.717,10.83Z" transform="translate(-103.825 7.357)" fill="#455a64"/>
      <path id="Trazado_658706" data-name="Trazado 658706" d="M187.582,66.785a15.844,15.844,0,0,0,.554-4.323,23.857,23.857,0,0,0-.554-4.962l-10.716-1.543Z" transform="translate(-102.239 9.72)" fill="#27debf"/>
      <path id="Trazado_658707" data-name="Trazado 658707" d="M167.736,54.64a30.068,30.068,0,0,0,4.1,9.869l6.617-8.324Z" transform="translate(-103.825 9.491)" fill="#27debf"/>
      <path id="Trazado_658708" data-name="Trazado 658708" d="M176.866,70.983c2.475,1.43,4.758,1.67,6.617.939l-6.617-15.966Z" transform="translate(-102.239 9.72)" fill="#27debf"/>
      <path id="Trazado_658709" data-name="Trazado 658709" d="M187.582,66.785,176.866,55.956l6.617,15.966c1.9-.749,3.357-2.519,4.1-5.137" transform="translate(-102.239 9.72)" fill="#27debf"/>
      <g id="Grupo_985588" data-name="Grupo 985588" transform="translate(74.627 57.352)" opacity="0.5">
        <g id="Grupo_182716" data-name="Grupo 182716">
          <g id="Grupo_182715" data-name="Grupo 182715" clip-path="url(#clip-path)">
            <path id="Trazado_235891" data-name="Trazado 235891" d="M183.483,48.864a30.12,30.12,0,0,1,4.1,9.869,23.939,23.939,0,0,1,.554,4.962,15.9,15.9,0,0,1-.554,4.323c-.743,2.617-2.2,4.388-4.1,5.136l-6.617-15.966Z" transform="translate(-176.866 -48.864)" fill="#fff"/>
          </g>
        </g>
      </g>
      <path id="Trazado_658710" data-name="Trazado 658710" d="M167.818,46.73a15.844,15.844,0,0,0-.554,4.323,23.856,23.856,0,0,0,.554,4.962l10.716,1.543Z" transform="translate(-103.906 8.117)" fill="#27debf"/>
      <path id="Trazado_658711" data-name="Trazado 658711" d="M171.227,64.28a20.531,20.531,0,0,0,6.619,6.7V55.956Z" transform="translate(-103.219 9.72)" fill="#27debf"/>
      <g id="Grupo_985589" data-name="Grupo 985589" transform="translate(63.357 54.848)" opacity="0.2">
        <g id="Grupo_182719" data-name="Grupo 182719">
          <g id="Grupo_182718" data-name="Grupo 182718" clip-path="url(#clip-path-2)">
            <path id="Trazado_235894" data-name="Trazado 235894" d="M167.818,46.73l10.716,10.829,6.617,15.966c-1.859.731-4.142.491-6.617-.939a20.517,20.517,0,0,1-6.617-6.7,30.062,30.062,0,0,1-4.1-9.867,23.856,23.856,0,0,1-.554-4.962,15.844,15.844,0,0,1,.554-4.323" transform="translate(-167.264 -46.73)"/>
          </g>
        </g>
      </g>
    </g>
  </g>
</svg>
